<?xml version="1.0" standalone="no"?>
<!DOCTYPE svg PUBLIC "-//W3C//DTD SVG 20010904//EN"
 "http://www.w3.org/TR/2001/REC-SVG-20010904/DTD/svg10.dtd">
<svg version="1.0" xmlns="http://www.w3.org/2000/svg"
 width="612.000000pt" height="612.000000pt" viewBox="0 0 612.000000 612.000000"
 preserveAspectRatio="xMidYMid meet">
<metadata>
Created by potrace 1.14, written by Peter Selinger 2001-2017
</metadata>
<g transform="translate(0.000000,612.000000) scale(0.100000,-0.100000)"
fill="#000000" stroke="none">
<path d="M2805 5914 c-485 -50 -929 -206 -1318 -463 -179 -119 -268 -191 -421
-340 -461 -451 -741 -998 -843 -1651 -22 -145 -26 -623 -5 -765 97 -660 378
-1223 833 -1672 126 -123 160 -152 299 -258 302 -228 714 -418 1080 -499 231
-51 335 -61 630 -61 287 0 345 5 580 52 554 111 1077 401 1485 824 140 146
217 242 325 405 240 365 382 745 451 1209 22 140 19 618 -4 765 -75 480 -243
896 -516 1275 -157 219 -402 468 -611 621 -105 77 -125 91 -216 147 -325 199
-679 327 -1094 394 -91 14 -559 27 -655 17z m619 -29 c1198 -159 2167 -1050
2420 -2225 177 -822 -17 -1673 -534 -2346 -104 -135 -341 -374 -476 -481 -775
-612 -1780 -783 -2708 -463 -949 328 -1671 1157 -1860 2139 -41 209 -50 315
-50 556 0 461 88 842 289 1250 283 574 750 1038 1320 1311 335 160 645 242
1055 278 92 8 429 -4 544 -19z"/>
<path d="M2750 5724 c-508 -61 -979 -259 -1380 -580 -106 -85 -305 -284 -388
-387 -304 -378 -489 -792 -574 -1282 -19 -113 -22 -167 -23 -405 0 -288 6
-356 51 -570 82 -387 253 -758 501 -1083 92 -121 323 -356 443 -451 210 -167
529 -347 764 -431 599 -215 1299 -208 1879 19 358 139 659 337 932 610 331
331 551 703 684 1154 76 259 106 500 98 810 -5 226 -19 344 -63 537 -231 1009
-1042 1804 -2059 2019 -264 55 -607 71 -865 40z m293 0 c17 -18 -123 -179
-216 -250 -125 -95 -336 -174 -465 -174 l-53 0 43 61 c135 194 383 336 628
362 19 2 40 5 46 5 6 1 13 -1 17 -4z m214 -20 c156 -34 303 -113 417 -222 55
-54 146 -166 146 -181 0 -11 -137 5 -210 24 -129 33 -271 112 -376 207 -59 55
-144 162 -144 184 0 15 65 11 167 -12z m-482 -13 c-98 -33 -130 -50 -222 -114
-94 -64 -231 -210 -258 -274 -1 -1 -42 -7 -93 -13 -100 -11 -228 -48 -307 -88
-129 -65 -266 -184 -339 -293 l-37 -56 -75 -7 c-194 -18 -362 -90 -524 -225
l-55 -46 39 55 c110 153 293 348 449 478 386 322 852 527 1357 597 141 19 153
17 65 -14z m698 3 c539 -79 1068 -347 1467 -744 99 -98 242 -267 286 -335 18
-30 18 -30 -22 6 -134 118 -316 200 -494 221 l-96 11 -34 51 c-154 223 -393
360 -683 391 -56 6 -58 7 -96 63 -40 59 -141 163 -201 207 -59 44 -154 94
-237 125 -87 33 -84 33 110 4z m-359 -72 c51 -133 60 -188 60 -337 -1 -156
-17 -236 -73 -360 -31 -68 -32 -68 -47 -47 -28 40 -74 180 -90 275 -28 158 -2
350 66 496 36 76 46 73 84 -27z m-146 -102 c-32 -111 -32 -353 0 -463 12 -42
22 -80 22 -82 0 -3 -15 11 -32 31 -97 111 -277 218 -434 259 l-89 23 45 11
c187 48 338 131 454 250 28 28 51 49 52 48 2 -1 -7 -36 -18 -77z m346 -72 c66
-49 208 -114 302 -139 l87 -23 -59 -12 c-154 -31 -320 -122 -440 -241 -37 -36
-64 -58 -61 -49 33 85 42 149 42 306 0 160 -5 199 -42 297 -4 10 24 -11 61
-45 38 -35 87 -77 110 -94z m-1065 -215 c-106 -155 -278 -283 -459 -341 -102
-33 -250 -54 -250 -36 0 16 72 107 131 165 157 155 367 251 567 258 l43 1 -32
-47z m279 17 c104 -29 208 -81 301 -150 77 -57 176 -164 208 -224 l15 -29 -69
6 c-235 22 -462 146 -611 333 -34 43 -62 83 -62 88 0 14 136 -1 218 -24z
m1270 -12 c-35 -64 -173 -197 -261 -252 -129 -80 -324 -142 -422 -134 l-38 3
53 70 c159 210 406 345 648 354 l43 1 -23 -42z m274 11 c153 -42 312 -139 412
-250 61 -67 110 -138 102 -147 -4 -3 -47 -1 -96 5 -180 23 -354 106 -496 236
-41 38 -74 64 -74 59 0 -15 119 -123 183 -165 83 -55 194 -104 284 -126 l78
-18 -45 -12 c-102 -27 -156 -46 -227 -83 -88 -45 -135 -79 -220 -162 l-63 -60
20 68 c42 150 44 335 4 481 -9 33 -17 69 -18 81 0 11 -6 27 -12 35 -14 17 -44
75 -44 85 0 11 135 -6 212 -27z m-1710 -139 c31 -92 32 -100 33 -265 0 -183
-10 -235 -71 -374 l-25 -56 -19 25 c-28 36 -78 196 -91 287 -21 150 7 339 72
482 l30 66 19 -35 c11 -19 34 -78 52 -130z m1508 100 c11 -21 32 -78 47 -127
24 -79 27 -103 27 -238 0 -123 -4 -164 -22 -229 -24 -86 -71 -189 -87 -189
-16 0 -64 105 -86 189 -26 99 -35 257 -20 351 21 136 86 303 111 288 6 -4 19
-24 30 -45z m-1668 -122 c-23 -75 -26 -100 -26 -248 0 -148 3 -173 25 -247
l26 -82 -66 67 c-113 116 -261 203 -415 242 -44 11 -81 22 -83 24 -2 2 18 7
44 11 66 10 194 60 277 109 38 23 108 78 155 123 47 45 86 82 87 83 1 0 -10
-37 -24 -82z m371 -106 c84 -55 177 -95 282 -122 l70 -18 -45 -11 c-195 -51
-344 -134 -464 -260 -32 -34 -56 -54 -52 -45 68 177 68 456 0 628 -4 10 25
-13 64 -52 39 -39 104 -93 145 -120z m1177 142 c-58 -152 -55 -425 6 -579 4
-11 -29 14 -73 56 -116 111 -248 183 -407 224 -32 8 -61 16 -63 19 -2 2 15 6
38 10 148 24 348 134 468 260 19 20 36 36 38 36 1 0 -2 -12 -7 -26z m-2282
-341 c-143 -210 -382 -349 -647 -378 l-65 -7 19 28 c23 36 110 145 127 159 92
76 137 109 191 139 109 61 253 104 355 105 l53 1 -33 -47z m232 33 c146 -31
306 -113 417 -214 52 -47 153 -172 153 -189 0 -9 -8 -12 -22 -9 -13 3 -50 7
-82 11 -125 12 -289 82 -407 171 -63 48 -175 166 -202 213 l-18 31 48 0 c26 0
77 -7 113 -14z m1333 -18 c-10 -18 -61 -75 -113 -128 -111 -111 -211 -174
-345 -219 -81 -27 -252 -57 -263 -47 -6 7 53 88 108 149 141 154 391 275 573
277 l58 0 -18 -32z m251 7 c165 -41 308 -126 429 -255 62 -65 107 -133 96
-144 -2 -3 -38 -1 -79 5 -183 22 -363 107 -499 234 -54 50 -141 159 -141 176
0 17 97 9 194 -16z m1292 -2 c-42 -78 -177 -209 -282 -273 -103 -62 -237 -106
-386 -125 -57 -7 -61 3 -22 61 131 196 420 359 647 363 l58 1 -15 -27z m234 7
c104 -25 244 -91 327 -154 99 -75 236 -237 213 -251 -15 -9 -162 14 -231 36
-143 47 -237 101 -338 195 -62 56 -151 166 -151 185 0 16 92 10 180 -11z
m-1691 -90 c47 -132 55 -180 55 -330 -1 -127 -4 -156 -28 -233 -25 -84 -70
-187 -82 -187 -12 0 -66 136 -86 218 -17 68 -22 116 -21 217 1 145 18 231 73
351 l31 69 19 -25 c10 -14 28 -50 39 -80z m1515 58 c73 -125 106 -379 72 -547
-16 -79 -56 -192 -83 -236 l-13 -20 -16 20 c-24 31 -52 100 -76 189 -31 116
-31 307 1 426 20 75 75 210 86 210 2 0 15 -19 29 -42z m-3081 -25 c75 -171 93
-367 52 -550 -17 -75 -73 -223 -84 -223 -13 0 -57 106 -83 195 -32 114 -32
323 0 442 23 85 69 193 82 193 4 0 19 -26 33 -57z m240 -210 c88 -59 201 -108
296 -129 l74 -17 -91 -23 c-161 -40 -349 -153 -444 -266 -23 -26 -42 -47 -44
-46 -1 2 9 41 22 88 47 159 43 357 -9 523 l-24 73 75 -78 c42 -43 107 -99 145
-125z m-348 146 c-62 -172 -60 -431 4 -599 l18 -46 -75 78 c-120 126 -276 216
-440 255 l-73 17 88 23 c168 45 312 131 428 254 33 36 61 64 63 63 1 0 -5 -21
-13 -45z m3067 -51 c-23 -73 -26 -102 -26 -238 -1 -148 8 -210 40 -295 4 -11
-23 9 -62 44 -129 120 -281 201 -432 232 l-63 13 88 23 c164 43 303 123 415
238 34 35 63 65 64 65 1 0 -10 -37 -24 -82z m-1536 15 c-45 -141 -47 -354 -3
-501 l24 -82 -59 60 c-117 118 -280 212 -433 248 l-77 18 87 22 c155 38 300
120 409 231 33 33 62 59 64 56 2 -2 -3 -25 -12 -52z m365 -114 c79 -53 197
-104 291 -126 l73 -17 -40 -8 c-109 -23 -246 -80 -334 -141 -25 -17 -78 -62
-119 -101 -42 -39 -73 -63 -69 -53 33 90 42 150 42 302 0 153 -8 213 -41 300
-4 11 24 -10 63 -47 40 -36 100 -85 134 -109z m1529 4 c90 -61 224 -117 330
-139 33 -7 31 -8 -50 -30 -158 -42 -277 -110 -397 -227 -40 -39 -73 -68 -73
-66 0 2 9 32 20 67 47 149 47 347 0 501 l-19 63 72 -69 c40 -38 92 -83 117
-100z m-3925 -179 c209 -51 407 -186 525 -358 l33 -49 -74 6 c-237 21 -474
157 -628 362 -45 60 -42 68 27 60 31 -4 84 -13 117 -21z m1326 9 c-19 -34 -62
-89 -114 -142 -149 -154 -346 -251 -546 -268 l-73 -6 12 24 c40 75 149 187
250 256 124 84 312 149 443 152 33 1 37 -1 28 -16z m246 -14 c136 -34 272
-108 373 -203 55 -52 132 -142 151 -177 11 -22 11 -22 -68 -16 -224 17 -450
142 -600 332 -35 44 -63 83 -63 88 0 13 119 -1 207 -24z m1293 17 c0 -24 -84
-129 -154 -192 -142 -128 -370 -224 -532 -224 l-45 0 42 60 c122 174 322 304
539 351 106 22 150 24 150 5z m269 -23 c90 -26 194 -74 270 -125 63 -43 191
-175 220 -228 l24 -43 -79 6 c-189 15 -381 105 -527 245 -66 64 -127 146 -127
171 0 18 114 5 219 -26z m1281 30 c0 -17 -103 -144 -154 -191 -140 -128 -330
-213 -508 -229 -43 -4 -68 -2 -68 4 0 19 52 88 113 151 109 112 234 189 374
232 109 33 243 51 243 33z m-4533 -223 c13 -55 18 -113 18 -215 0 -158 -15
-234 -69 -350 l-33 -70 -20 40 c-111 216 -111 554 0 770 l20 40 33 -70 c18
-38 40 -103 51 -145z m1492 173 c10 -21 31 -76 47 -123 26 -79 28 -96 29 -255
0 -183 -10 -235 -71 -374 l-25 -56 -19 25 c-26 35 -77 191 -91 281 -14 87 -6
238 16 324 21 79 75 215 86 215 5 0 17 -17 28 -37z m1545 -5 c14 -24 37 -83
52 -133 25 -82 28 -104 28 -245 0 -141 -3 -163 -28 -245 -15 -49 -39 -110 -53
-134 -25 -42 -27 -43 -40 -25 -49 63 -92 219 -100 354 -6 121 6 220 43 329 23
67 59 141 69 141 2 0 15 -19 29 -42z m1555 -32 c51 -123 65 -196 65 -346 0
-99 -5 -154 -18 -205 -21 -79 -75 -215 -86 -215 -12 0 -66 128 -86 205 -14 53
-19 105 -19 215 0 110 5 162 19 215 21 78 74 205 86 205 5 0 22 -33 39 -74z
m-4400 -201 c89 -58 165 -92 271 -121 47 -12 78 -25 70 -28 -8 -3 -44 -12 -80
-21 -146 -36 -354 -168 -444 -282 -22 -26 -36 -41 -33 -32 75 217 83 415 23
604 l-24 76 74 -75 c41 -41 106 -95 143 -121z m4276 123 c-53 -166 -53 -369
-1 -534 l25 -76 -51 56 c-102 114 -268 218 -413 256 -44 12 -87 24 -95 27 -8
3 20 14 64 24 160 39 338 145 442 263 27 31 50 56 50 56 1 0 -8 -33 -21 -72z
m-3092 -20 c-46 -153 -42 -380 7 -524 l19 -55 -71 71 c-121 120 -283 212 -428
242 -33 6 -60 15 -60 18 0 3 27 12 60 18 146 31 309 123 426 242 38 38 69 70
70 70 1 0 -10 -37 -23 -82z m319 -73 c80 -60 226 -131 315 -152 40 -10 73 -20
73 -23 0 -3 -33 -13 -73 -23 -147 -35 -343 -155 -443 -270 -20 -23 -33 -33
-29 -22 39 113 48 176 48 315 0 139 -12 220 -49 315 -4 11 16 -6 45 -37 29
-32 80 -78 113 -103z m1211 43 c-37 -145 -33 -331 12 -480 l14 -49 -78 73
c-117 109 -269 192 -407 221 -30 6 -54 14 -54 17 0 3 33 13 73 22 140 34 310
133 417 242 24 25 45 46 46 46 1 0 -9 -42 -23 -92z m353 -61 c72 -52 207 -114
291 -135 40 -9 73 -19 73 -22 0 -3 -33 -13 -73 -22 -79 -20 -212 -80 -283
-129 -26 -17 -76 -60 -113 -94 l-67 -63 24 91 c33 131 33 305 0 434 l-24 92
61 -57 c33 -32 83 -74 111 -95z m-3444 41 c-11 -43 -16 -107 -16 -203 1 -158
20 -248 77 -370 l34 -70 -34 -70 c-58 -124 -76 -211 -76 -375 -1 -164 17 -249
76 -375 l33 -70 -33 -73 c-59 -127 -76 -208 -77 -372 0 -108 4 -160 16 -205
10 -32 16 -61 14 -62 -2 -2 -20 35 -41 83 -269 628 -296 1307 -76 1946 22 64
52 142 67 175 14 32 30 68 35 81 16 41 16 23 1 -40z m4933 -198 c146 -422 188
-849 125 -1281 -23 -156 -74 -364 -120 -491 -37 -102 -102 -259 -105 -256 -2
2 4 35 12 73 11 51 13 108 10 205 -5 147 -23 226 -78 349 l-31 69 23 43 c115
227 119 534 9 776 l-30 66 34 81 c54 124 68 189 73 329 5 113 -2 186 -23 266
-13 47 69 -139 101 -229z m-4107 -57 c-94 -139 -255 -265 -408 -322 -98 -36
-290 -71 -290 -53 0 27 90 135 180 215 128 115 344 203 503 206 l48 1 -33 -47z
m292 16 c146 -40 269 -113 383 -226 64 -64 127 -145 127 -165 0 -5 -28 -6 -62
-2 -149 16 -305 74 -422 158 -68 49 -200 184 -230 236 l-19 33 74 -6 c41 -4
108 -16 149 -28z m1273 -1 c-10 -18 -63 -78 -118 -133 -112 -112 -201 -169
-338 -216 -80 -27 -252 -57 -264 -45 -11 11 112 160 178 216 153 127 346 207
507 209 l53 1 -18 -32z m271 3 c184 -54 357 -171 463 -315 58 -79 57 -89 -9
-81 -260 29 -497 165 -638 366 l-44 62 80 -6 c43 -4 110 -15 148 -26z m1275 7
c-7 -13 -34 -51 -62 -85 -140 -174 -360 -292 -594 -317 -75 -8 -79 -1 -32 65
143 201 420 355 647 358 52 1 52 1 41 -21z m200 7 c154 -32 310 -112 428 -219
48 -44 153 -174 153 -191 0 -13 -140 6 -227 31 -151 44 -277 120 -390 236 -59
61 -113 132 -113 149 0 14 71 11 149 -6z m-1670 -79 c51 -123 65 -196 64 -346
0 -107 -4 -152 -22 -215 -26 -95 -77 -209 -90 -201 -14 9 -69 156 -85 229 -34
148 -29 294 15 441 27 93 66 179 78 172 5 -3 23 -39 40 -80z m1560 -41 c41
-113 55 -214 48 -348 -7 -143 -48 -294 -96 -356 l-18 -24 -31 64 c-56 117 -76
217 -75 369 0 153 20 246 75 357 l32 65 18 -24 c9 -12 31 -59 47 -103z m-3110
35 c49 -125 64 -201 64 -335 0 -128 -14 -209 -59 -326 -42 -113 -46 -114 -82
-23 -46 116 -63 187 -69 301 -6 111 7 218 38 313 27 84 57 150 67 150 5 0 23
-36 41 -80z m-124 -73 c-56 -177 -48 -412 21 -591 3 -9 -29 20 -73 62 -131
131 -272 211 -443 251 l-75 18 50 7 c151 23 331 120 455 245 47 47 86 86 87
86 1 -1 -9 -36 -22 -78z m325 -92 c104 -76 230 -132 365 -162 l40 -9 -40 -8
c-173 -31 -357 -134 -487 -270 -32 -33 -58 -57 -58 -54 0 3 7 25 16 49 58 164
58 388 0 563 l-23 68 61 -64 c34 -36 91 -86 126 -113z m1225 114 c-53 -148
-58 -374 -12 -527 l24 -83 -76 74 c-121 118 -243 187 -406 230 -89 24 -89 24
-50 31 166 29 343 125 470 255 33 33 61 61 62 61 1 0 -4 -18 -12 -41z m341
-132 c72 -52 184 -103 288 -130 l88 -23 -58 -13 c-157 -35 -313 -120 -438
-240 -38 -36 -66 -58 -63 -48 35 95 42 149 41 307 0 151 -2 172 -26 243 l-26
79 71 -69 c40 -38 95 -85 123 -106z m1182 77 c-33 -114 -33 -344 0 -457 12
-42 22 -80 22 -84 0 -3 -18 15 -40 40 -53 59 -157 136 -249 182 -75 37 -216
85 -255 85 -12 1 20 12 70 25 159 41 356 157 437 257 17 21 32 36 34 34 2 -2
-7 -39 -19 -82z m387 -96 c87 -55 182 -95 277 -118 l73 -17 -75 -17 c-153 -34
-291 -110 -417 -229 l-72 -68 19 61 c51 170 47 393 -11 547 -8 22 6 12 63 -44
40 -39 105 -91 143 -115z m-3975 -160 c209 -40 414 -174 545 -357 l39 -54 -80
6 c-219 17 -460 150 -598 331 -31 40 -56 78 -56 84 0 12 49 9 150 -10z m1350
2 c-6 -11 -31 -46 -57 -78 -148 -186 -377 -312 -596 -329 l-79 -6 15 29 c26
50 119 151 192 209 136 109 338 186 508 194 25 1 27 -1 17 -19z m239 -12 c167
-40 307 -122 428 -253 43 -46 86 -97 96 -114 l18 -31 -53 0 c-182 0 -437 123
-578 277 -50 54 -110 135 -110 148 0 10 106 -4 199 -27z m1301 20 c0 -48 -178
-231 -285 -294 -141 -82 -332 -137 -438 -125 -17 2 80 126 149 190 146 136
354 225 557 240 9 0 17 -5 17 -11z m250 -19 c90 -23 196 -72 282 -130 78 -53
195 -171 227 -229 l24 -43 -79 6 c-103 8 -180 29 -282 77 -99 47 -159 87 -231
155 -61 56 -141 160 -141 182 0 18 88 10 200 -18z m1294 23 c9 -16 -100 -146
-179 -215 -96 -83 -241 -157 -365 -187 -88 -21 -180 -26 -180 -11 0 5 19 35
43 67 134 182 368 317 594 343 37 5 71 9 75 10 4 0 9 -3 12 -7z m-4528 -215
c15 -55 19 -105 19 -217 0 -163 -15 -239 -71 -357 l-32 -68 -30 65 c-92 199
-99 459 -18 673 46 123 45 122 81 44 17 -37 40 -100 51 -140z m1524 85 c42
-117 54 -201 47 -348 -6 -139 -24 -218 -75 -328 l-29 -61 -20 40 c-87 168
-113 400 -68 595 15 65 60 184 78 208 14 18 32 -12 67 -106z m1532 38 c57
-130 81 -325 59 -470 -14 -88 -52 -211 -82 -259 l-21 -35 -19 25 c-48 62 -88
211 -96 354 -8 158 32 347 93 440 17 26 18 26 32 9 8 -11 23 -39 34 -64z
m1540 -6 c64 -151 83 -387 44 -539 -24 -91 -76 -217 -88 -213 -5 2 -23 35 -40
72 -92 210 -89 490 9 709 30 67 36 65 75 -29z m-4409 -187 c77 -51 188 -102
268 -123 35 -9 71 -18 79 -21 8 -3 -17 -13 -55 -23 -167 -43 -307 -124 -429
-250 -43 -44 -75 -72 -71 -62 22 50 54 197 60 272 8 97 -12 250 -44 343 l-20
57 77 -77 c42 -43 103 -95 135 -116z m4282 120 c-53 -167 -53 -366 0 -534 l22
-72 -71 73 c-119 122 -253 200 -415 242 l-86 22 45 12 c200 51 349 136 466
263 32 36 60 66 60 66 1 1 -9 -32 -21 -72z m-3092 -19 c-46 -153 -42 -380 8
-525 l19 -55 -88 84 c-124 117 -248 187 -405 228 -75 19 -74 21 8 40 141 33
307 129 414 240 36 38 66 69 67 70 1 0 -10 -37 -23 -82z m362 -102 c93 -61
173 -98 265 -121 36 -10 72 -19 80 -22 8 -3 -23 -15 -70 -27 -162 -42 -295
-119 -415 -241 -38 -38 -65 -61 -61 -50 61 154 71 412 22 553 -32 92 -29 94
37 25 34 -36 98 -89 142 -117z m1174 97 c-40 -142 -41 -343 -1 -486 l20 -68
-62 59 c-116 111 -255 190 -398 226 -83 21 -104 36 -52 36 40 0 213 67 287
111 39 23 105 75 146 115 42 40 77 74 78 74 1 0 -7 -30 -18 -67z m375 -107
c70 -47 190 -98 266 -115 88 -20 89 -22 7 -42 -147 -35 -289 -114 -408 -226
l-66 -63 19 68 c41 148 41 337 -2 486 l-19 68 72 -69 c40 -37 99 -86 131 -107z
m-2632 -178 c-32 -51 -132 -159 -189 -206 -129 -104 -357 -192 -499 -192 l-35
0 32 48 c78 113 209 227 334 290 106 53 239 89 333 91 l44 1 -20 -32z m184 21
c223 -39 421 -160 558 -339 68 -88 69 -84 -10 -76 -194 19 -362 93 -511 223
-56 49 -163 177 -163 196 0 10 56 9 126 -4z m1370 -16 c-12 -24 -92 -121 -129
-158 -81 -79 -229 -166 -347 -203 -103 -33 -250 -54 -250 -36 0 3 25 39 57 81
87 116 219 218 358 276 76 33 216 65 283 66 l43 1 -15 -27z m202 11 c109 -22
219 -67 309 -126 87 -56 216 -183 252 -248 l23 -43 -72 7 c-211 21 -405 119
-557 280 -43 46 -86 97 -96 115 l-18 31 41 0 c22 0 76 -7 118 -16z m1330 -25
c-65 -117 -252 -268 -404 -327 -82 -31 -220 -62 -280 -62 l-35 0 23 41 c35 64
164 191 251 247 123 80 298 139 420 141 l48 1 -23 -41z m270 11 c104 -29 207
-81 301 -150 77 -57 176 -164 208 -224 l15 -29 -65 7 c-153 15 -312 75 -431
160 -97 70 -236 223 -236 259 0 14 121 1 208 -23z m-1718 -91 c64 -166 75
-360 30 -534 -20 -77 -73 -205 -85 -205 -12 0 -67 138 -85 215 -48 205 -29
400 58 584 23 50 26 53 38 36 8 -11 27 -54 44 -96z m-1541 -34 c37 -111 54
-245 45 -345 -9 -100 -46 -244 -80 -311 l-27 -54 -29 65 c-58 130 -73 201 -73
360 0 157 16 238 72 363 l27 59 17 -24 c10 -12 31 -63 48 -113z m3065 82 c69
-147 95 -371 61 -536 -18 -90 -65 -215 -89 -240 -14 -13 -19 -8 -45 50 -52
110 -73 209 -75 349 -1 90 4 147 18 205 19 86 78 225 95 225 5 0 21 -24 35
-53z m-3210 -107 c-51 -174 -50 -356 1 -517 13 -42 23 -79 21 -80 -2 -2 -15
13 -30 32 -88 115 -291 241 -460 285 l-89 24 59 12 c176 36 390 164 486 289
18 23 34 42 35 41 1 0 -10 -39 -23 -86z m369 -118 c86 -56 206 -106 300 -126
l62 -13 -51 -11 c-176 -39 -352 -139 -473 -268 l-72 -77 20 50 c64 163 67 406
8 583 l-22 66 75 -77 c41 -42 110 -99 153 -127z m1183 147 c-53 -126 -59 -374
-13 -527 l24 -83 -71 69 c-120 117 -268 199 -425 238 l-72 17 91 23 c50 13
128 41 174 64 91 45 227 148 270 205 33 43 42 41 22 -6z m359 -143 c91 -61
202 -109 292 -127 34 -7 61 -14 59 -16 -1 -2 -41 -13 -87 -24 -149 -38 -285
-115 -401 -229 -38 -36 -68 -64 -68 -63 0 2 9 36 21 76 14 48 23 114 26 198 6
133 -4 215 -36 313 l-19 58 67 -67 c36 -37 102 -90 146 -119z m1528 5 c73 -50
191 -102 284 -126 l85 -22 -73 -18 c-154 -36 -337 -142 -444 -256 -26 -28 -45
-43 -41 -33 56 142 67 383 24 537 l-25 87 71 -68 c39 -38 92 -83 119 -101z
m-365 84 c-17 -57 -21 -99 -22 -225 -1 -150 3 -179 41 -305 3 -12 -21 7 -58
43 -126 126 -267 200 -464 247 -27 6 -23 9 44 26 158 40 294 115 411 226 36
33 66 60 67 59 1 -1 -8 -33 -19 -71z m-2259 -287 c-117 -167 -312 -306 -495
-353 -79 -20 -197 -35 -207 -26 -9 9 48 88 117 159 132 138 333 237 531 261
33 4 64 4 69 0 5 -4 -2 -22 -15 -41z m1545 0 c-9 -18 -60 -76 -113 -128 -110
-109 -197 -163 -337 -209 -84 -28 -238 -54 -257 -44 -9 5 20 47 82 122 101
119 289 238 441 276 76 20 194 33 198 23 2 -4 -4 -22 -14 -40z m321 1 c101
-34 174 -72 255 -135 98 -76 231 -228 213 -245 -13 -11 -150 8 -227 31 -92 28
-217 90 -284 142 -99 76 -222 223 -208 246 9 15 160 -9 251 -39z m-3165 21
c158 -38 339 -144 441 -257 60 -68 111 -141 102 -146 -12 -7 -137 10 -207 28
-95 24 -252 107 -335 177 -66 56 -181 190 -181 210 0 15 95 8 180 -12z m1575
-5 c83 -22 228 -93 302 -149 33 -25 87 -74 118 -107 54 -59 110 -137 103 -144
-8 -8 -168 17 -233 36 -79 23 -184 74 -254 121 -60 41 -178 160 -221 222 l-33
49 79 -6 c43 -3 106 -13 139 -22z m2793 -36 c-97 -140 -264 -261 -435 -319
-80 -26 -241 -55 -252 -44 -8 7 16 48 63 106 138 173 410 315 609 317 l58 1
-43 -61z m-4527 -53 c78 -202 79 -440 2 -636 -45 -113 -48 -114 -83 -36 -87
192 -96 445 -23 650 14 39 32 84 40 100 18 35 21 31 64 -78z m1549 10 c50
-124 62 -202 57 -356 -4 -151 -21 -228 -72 -335 l-33 -70 -32 69 c-57 123 -73
204 -73 361 0 113 4 156 22 220 27 99 78 212 91 199 5 -5 23 -44 40 -88z
m1555 -21 c70 -193 73 -391 10 -585 -30 -89 -61 -144 -76 -134 -18 10 -64 121
-85 199 -25 96 -26 312 -1 412 20 82 49 162 74 199 l17 26 17 -24 c10 -12 30
-54 44 -93z m1510 66 c13 -28 37 -89 51 -138 23 -76 27 -107 27 -228 1 -101
-4 -159 -16 -208 -21 -84 -75 -217 -88 -217 -6 0 -21 25 -35 56 -86 194 -97
444 -29 642 22 65 56 142 62 142 1 0 14 -22 28 -49z m-4433 -194 c91 -69 212
-128 324 -158 l86 -23 -78 -18 c-97 -23 -240 -90 -320 -151 -34 -26 -90 -77
-125 -114 -35 -38 -60 -61 -57 -52 53 138 74 293 59 423 -9 80 -32 177 -56
241 -4 11 16 -5 44 -36 28 -31 83 -81 123 -112z m1230 71 c-45 -152 -42 -374
7 -522 l18 -56 -76 73 c-42 40 -98 88 -125 106 -73 50 -205 109 -292 130 -75
17 -77 19 -44 25 182 37 403 163 499 285 18 22 34 41 35 41 2 0 -8 -37 -22
-82z m373 -113 c79 -52 193 -101 284 -121 l74 -17 -93 -23 c-161 -41 -315
-131 -429 -252 -29 -31 -50 -48 -46 -37 36 103 48 177 49 305 1 130 -6 178
-39 284 l-15 48 78 -73 c42 -41 104 -92 137 -114z m2715 115 c-48 -160 -47
-355 4 -515 l24 -74 -72 72 c-123 124 -252 199 -421 242 l-89 23 59 12 c152
31 305 113 427 229 46 44 84 78 85 77 1 -1 -6 -31 -17 -66z m-1552 -10 c-32
-100 -37 -326 -10 -440 11 -47 23 -92 27 -101 3 -9 -22 12 -57 46 -68 66 -153
127 -233 167 -58 29 -206 78 -237 78 -35 0 -16 9 65 29 152 39 298 123 407
234 30 31 56 55 57 53 1 -1 -7 -31 -19 -66z m363 -95 c90 -61 176 -100 277
-126 l85 -23 -69 -17 c-155 -38 -293 -113 -410 -223 -38 -37 -70 -66 -70 -66
-1 0 7 30 17 67 50 178 43 364 -18 540 -3 10 23 -11 58 -45 35 -35 94 -83 130
-107z m-2618 -186 c-54 -92 -180 -212 -291 -279 -114 -67 -287 -120 -392 -120
l-41 0 42 60 c86 122 227 235 372 298 81 35 223 70 290 71 l38 1 -18 -31z
m214 12 c161 -33 304 -107 425 -219 57 -53 148 -165 148 -183 0 -25 -181 6
-300 52 -145 56 -300 174 -386 294 -24 35 -44 65 -44 69 0 11 64 6 157 -13z
m1353 13 c0 -14 -116 -158 -158 -195 -71 -63 -188 -136 -272 -168 -90 -35
-223 -64 -275 -59 l-38 3 50 66 c61 80 92 112 163 170 61 49 187 118 265 144
95 32 265 57 265 39z m245 -25 c157 -41 340 -155 441 -275 38 -45 74 -104 74
-120 0 -4 -30 -4 -67 -1 -259 25 -528 195 -658 416 -11 19 101 9 210 -20z
m1295 25 c0 -3 -16 -30 -36 -60 -80 -120 -258 -255 -408 -310 -112 -40 -286
-68 -286 -46 0 18 61 102 111 153 131 134 294 221 474 254 76 14 145 19 145 9z
m150 -4 c206 -33 421 -155 546 -311 28 -35 56 -74 63 -86 11 -22 10 -23 -29
-23 -116 0 -305 62 -423 139 -88 58 -201 168 -245 240 l-32 51 28 0 c15 0 56
-5 92 -10z m-1630 -87 c88 -211 91 -451 9 -665 -43 -111 -52 -114 -89 -37 -54
116 -73 208 -73 359 0 107 5 152 22 214 24 90 80 218 91 211 5 -3 23 -40 40
-82z m-1560 15 c54 -114 72 -208 72 -358 0 -152 -19 -245 -73 -360 l-31 -65
-30 65 c-73 159 -96 360 -60 530 17 84 76 250 88 250 3 0 18 -28 34 -62z
m3100 -12 c51 -114 65 -187 65 -346 0 -109 -5 -163 -19 -215 -21 -79 -68 -189
-85 -199 -15 -10 -64 96 -92 199 -18 64 -22 108 -22 215 0 107 4 151 22 215
28 103 77 209 92 199 6 -4 24 -34 39 -68z m-2917 -154 c107 -85 213 -137 352
-172 39 -10 63 -20 55 -23 -8 -3 -45 -13 -83 -22 -143 -37 -284 -120 -401
-238 l-82 -82 19 55 c61 179 63 395 3 573 l-22 67 48 -54 c26 -30 76 -77 111
-104z m-300 63 c-47 -146 -44 -388 8 -534 10 -30 17 -56 16 -58 -2 -1 -20 17
-40 41 -93 112 -293 236 -437 271 -99 25 -100 26 -25 44 88 22 179 59 251 102
72 44 182 136 218 183 15 21 30 36 32 34 2 -2 -8 -40 -23 -83z m1536 -21 c-32
-118 -37 -302 -11 -419 11 -49 24 -99 28 -110 4 -11 -24 10 -62 46 -38 36 -90
80 -116 97 -71 49 -198 107 -275 127 -37 9 -75 19 -83 22 -8 3 17 13 55 23
166 43 304 120 416 232 35 35 65 63 67 62 1 0 -8 -36 -19 -80z m372 -90 c82
-54 181 -98 282 -124 40 -10 65 -20 57 -23 -8 -3 -51 -15 -95 -27 -142 -39
-312 -142 -405 -247 -47 -52 -46 -56 -12 62 25 87 24 356 -1 440 -10 33 -20
67 -23 77 -3 9 25 -12 61 -47 36 -35 98 -85 136 -111z m1526 8 c109 -74 274
-142 344 -142 38 0 9 -15 -66 -34 -141 -35 -292 -122 -402 -232 -35 -34 -63
-61 -63 -61 0 1 9 29 19 62 32 102 44 241 31 352 -7 53 -20 124 -31 158 -10
33 -19 61 -19 61 0 1 29 -27 64 -61 35 -35 90 -81 123 -103z m-358 83 c-31
-109 -36 -295 -11 -415 11 -52 24 -104 28 -115 4 -11 -26 12 -67 50 -41 39
-110 93 -153 120 -75 46 -248 115 -292 115 -49 0 -29 15 42 32 147 35 313 129
418 237 28 28 51 49 52 48 2 -1 -6 -34 -17 -72z m-3558 -269 c231 -59 412
-187 534 -379 l18 -28 -64 7 c-240 26 -475 154 -616 338 -29 37 -53 72 -53 77
0 16 86 9 181 -15z m1319 14 c0 -20 -128 -167 -190 -217 -126 -103 -317 -182
-472 -197 -38 -3 -68 -4 -68 0 0 3 14 26 32 52 121 176 321 308 543 357 72 16
155 19 155 5z m204 -5 c183 -39 353 -137 478 -274 29 -33 64 -78 77 -101 l24
-42 -64 7 c-155 16 -282 62 -414 150 -82 54 -214 184 -248 244 l-18 31 48 0
c26 0 79 -7 117 -15z m1336 6 c0 -17 -54 -88 -113 -149 -148 -152 -332 -242
-549 -267 -76 -9 -76 2 3 100 124 153 308 267 504 310 70 15 155 19 155 6z
m268 -21 c88 -25 195 -77 277 -135 75 -53 188 -171 216 -226 l20 -41 -63 7
c-211 23 -381 101 -529 243 -73 69 -139 152 -139 175 0 15 133 1 218 -23z
m1265 -1 c-28 -49 -148 -173 -215 -224 -117 -88 -282 -151 -440 -170 -32 -3
-58 -4 -58 0 0 24 54 100 115 161 155 155 379 260 563 263 l53 1 -18 -31z
m-2967 -187 c48 -188 25 -432 -54 -588 l-30 -59 -31 65 c-56 119 -74 208 -74
365 0 156 16 237 73 361 l32 69 30 -59 c16 -33 41 -102 54 -154z m1498 143
c70 -141 94 -362 58 -537 -20 -95 -77 -233 -97 -233 -17 1 -53 76 -80 170 -38
128 -44 286 -17 416 21 103 86 259 101 243 5 -5 21 -32 35 -59z m-1658 -66
c-59 -142 -59 -443 -1 -583 8 -20 15 -38 15 -41 0 -3 -28 24 -61 60 -112 119
-290 220 -453 256 l-58 13 87 23 c162 43 328 142 432 257 26 29 49 52 51 51 1
-1 -4 -17 -12 -36z m347 -148 c73 -50 183 -99 279 -123 l87 -22 -76 -18 c-84
-20 -216 -79 -290 -129 -26 -18 -84 -67 -127 -108 -44 -42 -76 -67 -72 -56 37
97 49 177 50 310 0 135 -10 201 -50 310 -4 11 28 -14 72 -56 43 -41 100 -90
127 -108z m1187 133 c-53 -138 -55 -403 -5 -545 21 -57 20 -58 -20 -12 -89
105 -281 218 -434 257 l-88 22 86 22 c156 40 299 121 407 230 33 33 60 59 62
57 1 -1 -2 -15 -8 -31z m340 -124 c102 -69 239 -127 344 -146 37 -6 36 -7 -51
-29 -156 -40 -303 -124 -422 -243 -29 -29 -51 -46 -48 -37 67 174 67 423 0
602 -4 10 22 -11 58 -46 35 -35 89 -80 119 -101z m-3047 -24 c127 -79 304
-136 424 -136 46 0 49 -2 78 -48 44 -70 180 -203 260 -255 122 -78 266 -128
414 -143 l71 -7 45 -61 c116 -159 262 -268 445 -333 77 -27 57 -29 -88 -8
-704 100 -1343 478 -1773 1050 -68 89 -68 95 -6 38 32 -28 90 -72 130 -97z
m4142 39 c-418 -555 -1060 -931 -1760 -1030 -138 -20 -142 -19 -45 18 178 68
334 191 434 343 26 41 28 42 99 48 150 15 303 68 425 149 77 52 202 177 247
249 28 44 33 48 71 48 173 0 441 114 553 234 46 49 33 17 -24 -59z m-3461
-202 c163 -40 299 -116 412 -228 69 -68 134 -149 134 -167 0 -15 -93 -8 -180
12 -163 40 -331 137 -440 256 -50 56 -110 136 -110 149 0 10 113 -4 184 -22z
m1326 21 c0 -4 -20 -35 -45 -69 -53 -75 -163 -177 -239 -223 -126 -77 -299
-132 -411 -132 l-46 0 18 33 c31 55 213 229 283 270 88 51 204 94 297 111 86
16 143 19 143 10z m240 -25 c144 -37 294 -123 402 -231 56 -56 118 -141 118
-161 0 -13 -121 -2 -201 18 -95 24 -237 96 -322 164 -70 56 -169 166 -197 220
l-12 24 68 -8 c38 -4 103 -16 144 -26z m1300 23 c0 -15 -60 -95 -114 -150
-117 -123 -260 -207 -423 -248 -94 -24 -193 -32 -193 -16 0 20 65 107 121 162
132 130 290 212 472 245 86 16 137 18 137 7z m-1470 -112 c84 -218 77 -474
-20 -686 l-31 -69 -19 30 c-30 48 -78 203 -90 295 -21 150 6 332 70 469 37 78
46 74 90 -39z m180 -150 c83 -62 213 -124 307 -148 75 -19 102 -32 65 -32 -31
0 -179 -49 -237 -78 -80 -40 -162 -99 -231 -167 -36 -35 -63 -56 -60 -47 3 9
13 44 23 77 14 48 18 94 17 230 0 147 -3 179 -22 235 -12 36 -22 68 -22 72 0
4 21 -15 47 -43 25 -27 76 -72 113 -99z m-333 60 c-17 -62 -21 -103 -21 -235
1 -141 3 -169 25 -240 l25 -80 -66 66 c-117 117 -251 194 -410 235 -47 12 -78
25 -70 27 8 3 38 10 65 17 141 32 312 129 414 234 30 31 56 54 57 53 1 -1 -7
-36 -19 -77z m-499 -256 c219 -45 440 -189 551 -359 30 -47 31 -50 12 -53 -38
-6 -202 28 -279 58 -127 49 -200 98 -307 205 -55 55 -108 115 -118 133 l-18
32 41 0 c22 0 76 -7 118 -16z m1352 8 c0 -15 -129 -168 -172 -203 -101 -83
-206 -141 -318 -177 -65 -21 -219 -47 -239 -41 -14 5 43 88 101 150 129 138
314 239 490 268 69 11 138 13 138 3z"/>
</g>
</svg>
