<?xml version="1.0" standalone="no"?>
<!DOCTYPE svg PUBLIC "-//W3C//DTD SVG 20010904//EN"
 "http://www.w3.org/TR/2001/REC-SVG-20010904/DTD/svg10.dtd">
<svg version="1.0" xmlns="http://www.w3.org/2000/svg"
 width="612.000000pt" height="612.000000pt" viewBox="0 0 612.000000 612.000000"
 preserveAspectRatio="xMidYMid meet">
<metadata>
Created by potrace 1.14, written by Peter Selinger 2001-2017
</metadata>
<g transform="translate(0.000000,612.000000) scale(0.100000,-0.100000)"
fill="#000000" stroke="none">
<path d="M2855 5653 c-158 -10 -434 -63 -600 -114 -403 -125 -739 -331 -1050
-643 -409 -411 -650 -912 -719 -1496 -25 -206 -28 -317 -16 -470 53 -678 324
-1269 791 -1727 410 -402 862 -627 1444 -720 156 -25 544 -25 705 0 198 31
414 90 605 167 218 87 524 271 698 419 499 424 833 1041 923 1711 20 149 23
438 5 585 -107 882 -619 1615 -1409 2016 -424 215 -880 305 -1377 272z m205
-97 c0 -8 -5 -27 -11 -43 l-11 -28 -18 35 c-10 19 -16 38 -13 42 8 14 53 9 53
-6z m64 -59 c-2 -57 -25 -167 -35 -167 -3 0 -12 21 -19 46 -10 36 -10 56 0
102 7 31 17 65 22 76 16 31 33 1 32 -57z m-252 11 c2 -29 3 -54 2 -56 -5 -8
-54 31 -54 43 0 27 20 65 34 65 10 0 15 -16 18 -52z m131 -57 c50 -145 49
-153 -10 -106 -79 63 -83 69 -83 146 l0 69 28 0 c27 0 30 -5 65 -109z m210
-13 c4 -66 7 -150 7 -185 l0 -64 -30 16 c-56 29 -65 54 -50 153 15 109 17 140
7 175 -7 26 -6 27 26 27 l34 0 6 -122z m88 113 l26 -6 -35 -83 c-41 -98 -52
-93 -60 25 -5 72 -4 73 19 72 13 -1 36 -4 50 -8z m-498 -21 c-3 -11 -6 -20 -8
-20 -1 0 -10 9 -20 20 -18 20 -17 20 8 20 20 0 24 -4 20 -20z m579 -19 c15
-37 14 -50 -2 -153 -10 -62 -21 -138 -25 -169 -6 -58 -10 -62 -89 -98 -18 -8
2 211 28 299 30 102 53 160 65 160 4 0 15 -18 23 -39z m-683 -72 c-1 -87 -3
-100 -18 -97 -13 3 -17 21 -22 93 -3 50 -4 93 -2 98 2 4 13 7 24 7 18 0 19 -7
18 -101z m64 73 c25 -26 26 -29 17 -95 -6 -38 -7 -73 -4 -78 3 -6 3 -16 0 -24
-4 -12 -10 -13 -29 -4 -21 10 -25 20 -31 86 -13 153 -6 170 47 115z m657 18
c0 -5 -4 -10 -10 -10 -5 0 -10 5 -10 10 0 6 5 10 10 10 6 0 10 -4 10 -10z m86
-14 c2 -6 0 -33 -4 -59 l-7 -48 -32 30 c-23 21 -33 39 -33 59 0 16 2 31 5 34
9 8 66 -4 71 -16z m-871 -41 c7 -57 0 -99 -15 -90 -11 7 -70 112 -70 124 0 8
15 13 66 20 7 0 15 -22 19 -54z m943 -23 c12 -55 11 -64 -4 -87 -9 -14 -20
-22 -25 -18 -4 4 -8 42 -9 83 -3 93 -3 93 12 88 7 -3 18 -32 26 -66z m-1048
38 c0 -17 51 -117 71 -138 19 -21 24 -58 13 -99 -5 -17 -10 -20 -23 -12 -9 5
-43 20 -76 32 -69 27 -79 49 -45 97 17 24 20 38 14 79 -5 43 -4 50 12 53 22 5
34 1 34 -12z m1087 -30 c3 -43 2 -44 -11 -20 -7 14 -17 36 -21 48 -6 20 -4 23
12 20 14 -2 19 -14 20 -48z m33 24 c0 -8 -4 -12 -10 -9 -5 3 -10 10 -10 16 0
5 5 9 10 9 6 0 10 -7 10 -16z m-1190 -31 c0 -39 -13 -72 -23 -57 -10 18 -18
74 -12 84 15 25 35 9 35 -27z m1233 31 c7 -8 -24 -74 -35 -74 -11 0 -10 25 4
55 11 25 19 30 31 19z m-1289 -44 c3 -16 8 -43 11 -58 10 -51 -50 -88 -77 -48
-4 6 -8 37 -8 68 0 46 3 57 18 61 41 11 50 7 56 -23z m1360 22 c2 -4 -5 -51
-17 -105 l-20 -97 -28 32 c-30 35 -30 36 3 126 14 37 25 52 38 52 10 0 21 -3
24 -8z m-914 -42 c22 -23 30 -44 35 -91 4 -33 5 -62 2 -65 -2 -3 -20 3 -40 12
-33 16 -36 20 -39 73 -4 57 0 101 9 101 3 0 18 -14 33 -30z m987 22 c9 -6 9
-26 1 -85 -10 -70 -15 -83 -50 -120 l-39 -42 6 55 c6 48 28 151 40 188 5 13
24 16 42 4z m-1543 -18 c11 -30 6 -37 -14 -19 -11 10 -17 22 -14 26 8 14 21
11 28 -7z m1176 -42 c39 -39 49 -56 55 -95 8 -52 -3 -68 -77 -107 -60 -32 -62
-30 -54 63 10 117 18 187 23 187 2 0 26 -21 53 -48z m450 27 c0 -7 -32 -29
-43 -29 -2 0 -2 11 0 24 4 17 10 22 24 19 10 -3 19 -9 19 -14z m-1647 -33 c24
-38 27 -53 27 -122 -1 -68 -4 -83 -24 -108 -21 -26 -24 -27 -29 -10 -27 92
-37 284 -14 284 6 0 24 -20 40 -44z m-85 -31 c-2 -30 -7 -55 -13 -55 -5 0 -11
25 -13 55 -2 45 0 55 13 55 13 0 15 -10 13 -55z m1456 40 c3 -8 1 -15 -4 -15
-6 0 -10 7 -10 15 0 8 2 15 4 15 2 0 6 -7 10 -15z m334 9 c12 -4 22 -12 22
-18 0 -18 -49 -61 -97 -85 l-43 -21 0 25 c0 26 63 105 84 105 6 0 21 -3 34 -6z
m-1840 -56 c-2 -31 -8 -44 -20 -46 -14 -3 -18 3 -18 26 0 41 9 62 27 62 11 0
13 -11 11 -42z m1922 22 c29 -16 14 -47 -27 -55 -46 -8 -50 -3 -23 34 24 35
24 35 50 21z m-1984 -22 c-3 -13 -6 -29 -6 -35 0 -18 -11 -16 -39 6 l-24 19
29 15 c40 22 47 21 40 -5z m1544 -5 c0 -18 -28 -53 -42 -53 -13 0 -9 29 8 55
17 26 34 25 34 -2z m-567 -91 c8 -10 19 -36 25 -60 l10 -43 -38 35 c-21 18
-54 40 -73 47 -29 10 -37 19 -42 48 -3 20 -9 47 -12 60 -6 22 0 20 55 -23 33
-26 67 -55 75 -64z m-1029 44 c31 -30 36 -41 36 -81 0 -53 -26 -105 -51 -105
-13 0 -22 24 -42 100 -23 92 -23 101 -8 110 23 14 25 13 65 -24z m2146 -5 c0
-34 -26 -69 -69 -94 -36 -21 -38 -15 -17 53 10 33 20 47 42 57 41 17 44 16 44
-16z m-1486 13 c23 -9 20 -73 -5 -103 -26 -31 -33 -22 -30 41 3 68 6 73 35 62z
m1005 -51 c17 -26 31 -60 31 -76 0 -31 -72 -157 -108 -190 -18 -17 -19 -15
-18 55 0 40 -4 98 -8 128 -8 54 -7 57 25 92 19 19 37 36 41 37 3 0 20 -20 37
-46z m531 43 c0 -2 -7 -9 -15 -16 -12 -10 -15 -10 -15 4 0 9 7 16 15 16 8 0
15 -2 15 -4z m-2293 -129 c-1 -14 -12 -5 -39 32 -21 28 -38 53 -38 55 0 3 12
12 28 20 l27 14 12 -51 c7 -29 12 -60 10 -70z m503 97 c0 -43 37 -230 51 -261
l20 -42 -27 -40 c-15 -23 -30 -41 -34 -41 -19 0 -80 218 -80 285 0 58 30 118
55 109 8 -4 15 -8 15 -10z m333 4 c12 -9 18 -30 19 -68 2 -45 -2 -61 -22 -87
-29 -40 -35 -40 -57 -7 -16 25 -16 28 5 65 12 21 22 54 22 73 0 39 6 43 33 24z
m1287 5 c0 -4 -10 -38 -22 -76 -20 -60 -28 -73 -72 -105 -39 -29 -60 -37 -105
-40 l-56 -4 -17 46 -17 45 27 29 c31 33 127 97 157 105 31 7 105 8 105 0z
m216 -8 c10 -24 -88 -166 -100 -146 -4 5 -2 31 4 58 16 71 80 130 96 88z
m-2406 -67 c18 -29 48 -70 66 -91 19 -20 34 -47 34 -58 0 -24 -37 -89 -50 -89
-4 0 -20 34 -36 76 -24 66 -34 81 -76 112 -26 20 -48 41 -48 47 0 7 60 50 77
55 1 0 16 -24 33 -52z m279 -28 c-5 -91 -14 -107 -53 -89 -25 12 -25 14 -11
35 9 14 15 46 15 79 0 53 1 55 26 55 l26 0 -3 -80z m383 66 c19 -8 52 -36 72
-61 42 -51 44 -40 -24 -122 -19 -24 -37 -43 -41 -43 -11 0 -46 92 -53 140 -4
25 -9 57 -12 73 -6 32 6 34 58 13z m1795 6 c19 -12 -12 -150 -39 -179 -21 -22
-77 -53 -97 -53 -19 0 -1 47 44 116 24 36 48 78 55 94 13 32 18 34 37 22z
m-1390 -97 c13 -49 11 -82 -16 -263 l-6 -44 -51 64 c-28 34 -61 77 -74 95
l-23 32 28 37 c34 44 57 117 48 152 l-6 25 43 -24 c38 -21 46 -31 57 -74z
m1480 31 c-2 -5 -17 -20 -35 -34 l-32 -25 0 29 c0 16 3 39 6 51 6 22 7 22 35
6 16 -10 28 -22 26 -27z m-2197 -53 c7 -30 8 -73 5 -96 l-7 -41 -25 28 c-17
21 -22 34 -16 49 4 12 8 50 8 85 0 51 2 59 12 46 7 -9 17 -41 23 -71z m1339
-63 c1 -30 -6 -80 -15 -110 -8 -30 -21 -100 -29 -154 -8 -55 -16 -101 -18
-102 -2 -2 -20 14 -40 35 l-37 39 -9 163 c-6 107 -6 165 1 168 5 2 37 22 71
45 l62 41 7 -35 c4 -19 7 -60 7 -90z m589 93 c-6 -21 -7 -57 -4 -81 9 -70 2
-83 -75 -124 -38 -20 -69 -34 -69 -30 0 4 11 47 25 95 21 79 29 92 72 132 26
24 51 44 55 45 3 0 2 -17 -4 -37z m-2371 -15 c36 -38 84 -141 71 -153 -2 -3
-17 -1 -34 3 -25 7 -33 19 -61 88 -48 119 -43 131 24 62z m1418 26 c18 -12 25
-25 25 -49 0 -44 -18 -91 -30 -79 -8 8 -40 117 -40 136 0 13 19 9 45 -8z
m-133 -80 l41 -55 -23 -97 c-23 -95 -43 -132 -84 -154 -18 -10 -18 -5 -10 133
10 182 10 188 1 222 -7 26 -6 27 13 17 11 -6 39 -35 62 -66z m1418 61 c13 -16
12 -19 -42 -92 -38 -53 -39 -53 -93 -53 -50 0 -54 2 -43 18 17 25 146 142 156
142 5 0 15 -7 22 -15z m-2760 -68 c12 -32 20 -60 17 -63 -2 -3 -16 -2 -31 2
-25 6 -26 9 -26 72 0 74 7 72 40 -11z m623 -47 c9 -50 28 -118 42 -152 22 -53
24 -67 14 -90 -6 -16 -15 -28 -19 -28 -15 0 -78 165 -95 249 -7 32 18 111 34
111 4 0 14 -41 24 -90z m2211 61 c3 -5 -4 -27 -17 -50 -20 -37 -26 -41 -60
-41 -44 0 -44 -3 3 67 28 41 38 49 52 42 9 -5 19 -13 22 -18z m-2938 -28 c-3
-3 -13 0 -22 8 -14 12 -14 14 3 27 16 11 18 11 21 -8 2 -12 1 -24 -2 -27z
m2133 -24 c-31 -19 -40 -10 -23 23 17 33 17 33 27 10 8 -18 7 -26 -4 -33z
m-1049 -13 c0 -5 -9 -23 -19 -40 -11 -17 -25 -51 -31 -76 l-12 -45 -24 30
c-42 51 -41 68 7 130 l44 55 17 -22 c10 -13 18 -27 18 -32z m-1106 21 c24 -19
28 -28 22 -50 -3 -15 -10 -27 -14 -26 -16 1 -64 70 -58 84 7 20 16 19 50 -8z
m1761 -186 l-6 -24 -25 23 c-21 21 -24 32 -24 96 0 67 2 74 28 92 l27 20 3
-91 c2 -51 0 -103 -3 -116z m-1252 169 c4 -4 0 -35 -9 -69 -10 -34 -21 -58
-25 -54 -12 14 -40 125 -35 139 4 11 11 12 33 2 15 -6 32 -15 36 -18z m2512
17 c17 -13 16 -15 -15 -26 -39 -13 -45 -10 -30 18 13 25 20 26 45 8z m-3041
-79 c48 -60 65 -109 66 -185 l0 -43 -44 0 c-43 0 -44 1 -51 38 -4 20 -24 64
-44 97 -57 91 -59 102 -19 135 18 16 36 25 39 22 4 -4 27 -33 53 -64z m2401
35 c-6 -36 -49 -107 -78 -131 -12 -11 -19 -2 -41 53 -15 37 -24 70 -21 74 2 5
30 11 61 14 31 3 62 11 67 16 18 18 20 13 12 -26z m705 -18 c0 -7 -6 -17 -12
-22 -17 -10 -130 -34 -136 -28 -12 12 28 49 68 65 47 18 80 12 80 -15z m-2945
-9 c19 -8 35 -21 35 -28 0 -7 16 -38 35 -69 l34 -56 -14 -52 c-22 -83 -25 -82
-80 23 -19 37 -42 78 -50 89 -17 24 -20 107 -5 107 6 0 26 -7 45 -14z m1409
-12 c17 -24 16 -28 -18 -112 -20 -48 -42 -118 -50 -156 -13 -65 -39 -115 -63
-123 -6 -2 -12 23 -16 64 l-5 68 47 50 c41 43 49 59 60 115 20 107 22 120 26
120 1 0 10 -12 19 -26z m653 -24 c27 -89 32 -130 17 -145 -22 -22 -221 -165
-229 -165 -4 0 -6 46 -3 103 5 110 19 150 66 195 31 29 101 63 121 59 8 -1 20
-22 28 -47z m-1791 -37 l13 -58 -34 39 c-31 38 -32 41 -18 63 9 13 18 21 21
19 2 -3 10 -31 18 -63z m172 45 c34 -68 42 -116 42 -271 0 -132 -3 -164 -17
-188 -10 -16 -21 -29 -25 -29 -4 0 -17 19 -29 43 -27 52 -43 222 -28 306 30
170 35 182 57 139z m633 -75 c71 -93 98 -136 99 -158 0 -6 -25 -23 -55 -38
l-55 -27 -59 80 c-58 78 -59 80 -50 122 19 84 30 118 38 118 5 0 42 -44 82
-97z m1545 43 c-19 -49 -25 -56 -61 -65 -63 -16 -139 -30 -143 -26 -7 7 20
105 30 111 8 5 138 28 184 33 7 1 3 -20 -10 -53z m124 34 c-12 -23 -87 -76
-96 -68 -2 3 3 24 12 47 15 38 19 41 55 41 37 0 39 -2 29 -20z m245 10 c3 -5
-3 -10 -14 -10 -12 0 -21 5 -21 10 0 6 6 10 14 10 8 0 18 -4 21 -10z m-3257
-98 c41 -87 49 -112 35 -112 -15 1 -43 27 -43 41 0 8 -14 43 -30 77 -27 58
-31 82 -12 82 4 0 26 -40 50 -88z m412 38 c0 -21 -24 -21 -41 1 -27 34 -23 42
11 24 17 -9 30 -20 30 -25z m-479 -27 c11 -25 18 -49 17 -54 -2 -4 -21 8 -42
27 -38 33 -39 34 -21 54 10 11 20 20 22 20 2 0 13 -21 24 -47z m3376 30 c2 -6
-28 -33 -67 -59 -39 -25 -84 -60 -101 -76 -59 -59 -45 -18 38 115 23 37 25 38
75 35 28 -2 53 -8 55 -15z m-163 -20 c-97 -150 -83 -141 -188 -122 -60 11 -62
13 -58 39 3 20 12 30 35 38 18 6 70 24 117 41 108 39 118 39 94 4z m-2032 -44
l35 -61 -16 -74 c-8 -41 -18 -74 -21 -74 -3 0 -27 41 -53 91 l-48 90 26 45
c14 24 30 44 35 44 4 0 24 -27 42 -61z m1528 34 c-24 -84 -45 -116 -123 -188
-45 -40 -83 -72 -85 -70 -2 1 0 41 4 87 l6 84 96 57 c53 31 99 57 103 57 4 0
4 -12 -1 -27z m-1800 -88 c26 -76 29 -96 24 -159 -7 -80 7 -209 37 -335 10
-46 17 -86 15 -88 -3 -4 -41 39 -139 161 -18 23 -18 24 8 77 l28 54 -5 192
c-3 107 -3 192 -1 190 2 -2 17 -43 33 -92z m-328 19 c61 -75 69 -94 76 -178
l5 -68 -54 31 c-49 28 -54 34 -57 68 -5 74 -13 103 -39 133 -23 28 -24 34 -13
56 8 13 18 23 24 21 6 -2 32 -30 58 -63z m1248 51 c9 -10 11 -35 7 -75 -4 -50
-15 -77 -62 -158 -86 -145 -84 -143 -147 -205 -32 -32 -62 -66 -67 -75 -9 -16
-10 -16 -17 1 -5 14 5 31 38 65 79 83 140 180 155 246 19 86 63 216 73 216 4
0 13 -7 20 -15z m1590 6 c0 -4 -5 -22 -11 -39 -11 -31 -47 -52 -119 -67 l-35
-7 25 27 c24 27 117 93 133 94 4 1 7 -3 7 -8z m-3441 -45 l43 -44 -7 -56 c-6
-42 -11 -56 -24 -56 -8 0 -44 30 -79 67 l-63 66 33 34 c17 18 37 33 43 33 6 0
30 -20 54 -44z m3476 14 c3 -5 1 -10 -4 -10 -6 0 -11 5 -11 10 0 6 2 10 4 10
3 0 8 -4 11 -10z m-537 -52 c-2 -19 -14 -25 -75 -39 -40 -9 -70 -12 -67 -7 7
11 115 67 132 68 8 0 12 -9 10 -22z m580 9 c9 -10 1 -18 -34 -35 -53 -26 -54
-26 -54 -7 0 8 15 24 33 35 38 24 41 24 55 7z m-1574 -31 c30 -41 28 -54 -30
-140 -33 -50 -64 -76 -51 -43 2 6 12 58 22 115 10 56 21 102 25 102 4 0 19
-15 34 -34z m-2036 -72 c46 -62 69 -85 96 -94 37 -12 39 -16 51 -98 l6 -44
-76 62 c-69 56 -185 185 -185 205 0 9 42 57 46 52 1 -1 29 -39 62 -83z m442
46 c0 -13 -1 -13 -10 0 -5 8 -10 22 -10 30 0 13 1 13 10 0 5 -8 10 -22 10 -30z
m169 -1 c17 -49 14 -79 -7 -79 -32 0 -40 17 -29 65 12 53 21 56 36 14z m-379
-62 c5 -26 10 -51 10 -54 0 -9 -61 6 -77 18 -13 12 -17 58 -7 96 6 20 7 20 35
5 22 -13 31 -28 39 -65z m3250 54 c-6 -12 -33 -32 -61 -46 -27 -14 -74 -41
-104 -60 -30 -19 -57 -35 -60 -35 -15 0 -1 41 27 78 29 37 37 42 74 42 24 0
59 10 85 24 24 13 45 22 47 20 2 -1 -1 -12 -8 -23z m180 14 c8 -9 9 -19 4 -23
-5 -5 -36 -30 -69 -57 -33 -26 -88 -76 -122 -109 -35 -33 -63 -56 -63 -51 0 6
22 50 49 99 47 85 53 92 113 122 74 39 72 38 88 19z m-2452 -84 c18 -45 38
-106 45 -136 10 -50 9 -58 -17 -117 -16 -35 -39 -90 -51 -122 l-22 -59 -21 79
c-38 140 -44 217 -27 311 18 94 33 135 49 130 6 -2 26 -40 44 -86z m1322 -8
c-16 -84 -53 -127 -118 -138 -42 -7 -92 12 -92 34 0 5 23 26 51 47 29 21 77
59 108 85 30 27 57 46 59 44 3 -2 -1 -35 -8 -72z m-1110 27 l32 -40 -21 -18
c-11 -9 -35 -42 -52 -72 l-31 -55 6 80 c6 94 15 145 26 145 5 0 23 -18 40 -40z
m1790 -3 c0 -34 -6 -49 -28 -70 -24 -23 -37 -27 -86 -27 -55 0 -58 1 -53 23 3
12 9 43 12 70 l7 47 74 0 74 0 0 -43z m-3304 -9 c16 -24 32 -48 36 -54 6 -9
-1 -10 -25 -4 -40 9 -87 31 -87 40 0 7 39 60 44 60 2 0 16 -19 32 -42z m458
-25 c4 -38 8 -85 10 -105 2 -21 1 -38 -2 -37 -23 1 -78 106 -96 182 -6 26 -5
27 38 27 l44 0 6 -67z m3346 30 c0 -8 -7 -27 -15 -43 -16 -31 -36 -36 -83 -23
-23 6 -22 8 24 54 37 37 51 46 61 37 7 -6 13 -17 13 -25z m-704 10 c-3 -10 -8
-34 -11 -54 l-7 -37 -116 -4 c-65 -2 -119 -3 -122 -1 -17 14 32 43 126 75 126
43 137 44 130 21z m-2522 -56 c-12 -41 -20 -37 -30 12 -7 32 -6 33 15 22 16
-9 20 -18 15 -34z m1656 -17 c22 -59 22 -59 3 -87 -11 -15 -37 -60 -57 -100
-35 -66 -79 -113 -89 -95 -3 4 -8 33 -12 64 -7 57 -7 59 42 135 28 43 58 93
67 111 9 17 18 32 20 32 2 0 14 -27 26 -60z m-509 28 c4 -52 -9 -158 -20 -158
-4 0 -19 30 -33 66 l-26 66 32 19 c36 22 46 24 47 7z m2109 -2 c0 -7 -7 -19
-15 -26 -16 -13 -20 -3 -9 24 8 20 24 21 24 2z m-335 -59 c-23 -41 -35 -77
-35 -102 0 -32 -9 -48 -65 -110 -56 -63 -74 -76 -142 -103 -42 -17 -79 -30
-80 -28 -2 2 13 30 33 62 19 32 54 98 77 146 34 71 47 89 72 98 17 5 59 30 95
55 36 24 68 45 72 45 4 0 -8 -28 -27 -63z m-3502 8 c49 -24 123 -74 165 -110
71 -60 80 -72 108 -145 18 -44 29 -80 25 -80 -4 0 -39 27 -79 59 -42 34 -94
67 -123 76 -27 9 -49 21 -49 27 0 5 -26 37 -57 71 -101 109 -106 115 -100 131
4 9 10 16 14 16 4 0 48 -20 96 -45z m2001 -32 c-5 -57 -16 -89 -68 -193 -34
-69 -73 -150 -85 -180 l-23 -55 -20 58 -20 58 21 52 c12 29 44 79 73 112 28
33 67 95 86 138 19 42 36 77 38 77 2 0 1 -30 -2 -67z m-1330 44 c17 -12 16
-16 -9 -78 -14 -35 -30 -96 -34 -136 -4 -40 -9 -75 -13 -78 -11 -12 -50 97
-43 124 12 47 66 181 74 181 4 0 15 -6 25 -13z m3224 -28 c7 -12 12 -22 10
-23 -2 -1 -25 -20 -53 -43 -47 -38 -87 -63 -99 -63 -3 0 -6 11 -6 23 0 16 9
28 24 35 14 6 33 24 42 39 35 56 61 66 82 32z m-3992 -26 c16 -21 46 -57 68
-80 21 -24 35 -43 32 -43 -12 0 -150 67 -169 81 -16 13 -16 16 5 46 13 18 26
33 29 33 4 0 19 -17 35 -37z m1718 -42 c9 -30 16 -74 16 -98 0 -38 -6 -50 -52
-102 -90 -101 -113 -96 -105 23 5 84 33 164 79 227 27 37 40 27 62 -50z m2129
53 c-8 -21 -202 -176 -213 -169 -4 3 -11 17 -14 32 -6 23 1 34 56 90 62 63 63
63 120 63 49 0 56 -2 51 -16z m-3375 -92 c106 -137 125 -165 158 -236 18 -41
34 -77 34 -80 0 -17 -92 -3 -140 22 -49 24 -57 33 -78 86 -29 75 -49 154 -57
234 -6 63 -6 64 15 49 11 -8 42 -42 68 -75z m430 58 c60 -35 61 -38 34 -166
-16 -75 -21 -85 -74 -144 -51 -56 -59 -61 -74 -49 -15 12 -16 30 -11 139 6
128 35 250 60 250 7 0 36 -14 65 -30z m2262 -10 c0 -11 -6 -36 -14 -54 -12
-30 -24 -37 -127 -75 -63 -22 -116 -41 -120 -41 -3 0 -2 30 2 68 5 37 8 72 8
78 1 18 29 26 111 34 135 13 140 12 140 -10z m115 -12 c-28 -33 -75 -65 -75
-51 0 4 5 25 11 46 9 35 12 37 50 37 l41 0 -27 -32z m53 -50 c-19 -35 -73
-133 -122 -218 -75 -133 -110 -187 -211 -327 -14 -20 -55 -33 -55 -18 0 2 29
60 65 128 36 68 74 149 84 180 11 32 32 85 47 118 24 53 33 63 79 84 35 17 66
43 96 80 24 30 45 51 47 45 2 -5 -12 -38 -30 -72z m-3255 -46 c31 -14 47 -27
47 -39 0 -10 11 -48 24 -85 12 -38 18 -68 12 -68 -5 0 -36 7 -67 16 -55 16
-59 19 -76 62 -9 25 -43 73 -75 108 -61 64 -65 73 -47 91 8 8 28 0 72 -27 34
-20 83 -46 110 -58z m3967 88 c0 -20 -111 -195 -140 -222 -17 -16 -41 -28 -55
-28 -24 0 -25 3 -25 58 0 32 6 66 13 75 15 21 177 126 195 127 6 0 12 -5 12
-10z m-1170 -27 c0 -40 -22 -148 -30 -151 -5 -2 -63 -39 -130 -84 -67 -44
-123 -78 -125 -76 -2 1 -1 16 2 31 4 20 21 40 55 64 40 29 58 52 93 123 40 81
47 89 82 98 53 14 53 14 53 -5z m1243 -96 c-8 -14 -123 -67 -123 -57 0 6 16
43 36 82 l36 71 28 -44 c15 -24 25 -47 23 -52z m-3083 39 c-1 -6 -15 -27 -32
-46 -17 -19 -28 -28 -25 -19 3 9 9 37 12 63 7 45 8 46 26 30 11 -9 19 -22 19
-28z m1319 -139 c-49 -151 -80 -216 -108 -225 -10 -3 -12 1 -8 17 3 12 1 51
-5 86 l-11 64 32 32 c18 17 48 64 68 103 44 88 64 113 75 93 5 -9 -12 -76 -43
-170z m-2383 41 c24 -47 22 -54 -11 -42 -27 11 -108 142 -100 162 6 14 13 10
46 -28 22 -25 51 -66 65 -92z m2739 63 c-22 -45 -81 -99 -93 -86 -11 11 47
102 77 123 19 12 36 20 38 18 3 -2 -7 -27 -22 -55z m1075 45 c0 -10 -101 -96
-114 -96 -2 0 -6 7 -10 15 -3 10 13 28 52 54 63 44 72 47 72 27z m-2303 -172
c5 -71 6 -144 3 -163 l-5 -34 -39 43 -39 43 7 71 c7 83 46 204 58 183 4 -8 11
-72 15 -143z m2112 116 c0 -8 -22 -31 -48 -52 -42 -31 -59 -57 -127 -190 l-79
-153 -65 -33 c-43 -21 -87 -34 -129 -39 l-63 -6 12 24 c37 69 147 223 174 244
17 12 63 39 102 58 54 27 88 54 140 111 66 71 84 79 83 36z m-3711 -65 c-7 -7
-78 28 -78 39 0 6 7 22 17 35 l16 24 24 -48 c14 -26 23 -48 21 -50z m318 60
c20 -8 77 -53 126 -100 49 -47 93 -85 99 -85 5 0 9 -4 9 -9 0 -4 -35 -11 -77
-14 -43 -4 -86 -8 -96 -9 -13 -2 -26 18 -57 88 -41 96 -56 144 -46 144 4 0 23
-7 42 -15z m2849 -116 c-61 -139 -120 -231 -199 -309 -36 -35 -66 -60 -66 -54
0 5 22 68 50 139 27 72 53 154 56 183 l7 53 96 49 c53 26 97 47 99 46 1 -2
-18 -49 -43 -107z m-1879 -22 c31 -43 54 -80 51 -83 -3 -3 -28 -1 -54 5 -27 5
-74 7 -104 4 l-54 -5 -13 34 c-18 50 -16 55 35 115 l47 55 18 -24 c10 -13 43
-58 74 -101z m958 81 c7 -40 5 -43 -36 -79 -24 -20 -44 -36 -45 -35 -6 5 60
156 67 156 4 0 10 -19 14 -42z m319 -40 l15 -68 -50 -30 c-28 -17 -51 -30 -53
-28 -2 2 5 30 15 63 10 33 24 80 30 104 6 24 15 40 20 35 4 -5 15 -39 23 -76z
m1326 25 c-4 -32 -8 -66 -8 -75 -2 -32 -21 -19 -44 28 l-22 46 35 29 c19 16
37 29 40 29 3 0 3 -26 -1 -57z m388 12 c-9 -27 -92 -69 -202 -100 -66 -19
-124 -35 -130 -35 -24 0 31 34 165 103 129 66 146 73 158 59 7 -9 11 -21 9
-27z m-606 -83 c-44 -43 -81 -78 -81 -77 0 2 9 23 20 49 14 30 38 59 73 85 85
65 78 30 -12 -57z m-1755 62 c4 -15 1 -36 -7 -51 l-13 -25 -8 28 c-8 31 -1 74
13 74 5 0 12 -12 15 -26z m-1955 -13 c35 -15 88 -36 117 -45 28 -10 52 -23 52
-29 0 -7 3 -22 6 -34 9 -33 -17 -30 -101 10 -39 19 -82 37 -97 40 -15 4 -39
12 -53 17 -25 9 -25 11 -10 40 9 16 17 30 19 30 2 0 32 -13 67 -29z m4315 -28
c-33 -63 -79 -114 -138 -153 -57 -36 -68 -40 -128 -40 l-66 0 -18 36 c-9 20
-16 37 -14 38 2 1 46 12 98 25 159 39 187 50 230 86 50 42 55 43 36 8z m-2429
-60 c-7 -94 -29 -160 -74 -232 l-34 -54 -30 34 c-59 69 -51 92 91 271 25 31
47 57 49 57 2 1 1 -34 -2 -76z m1961 11 l27 -55 -61 -59 c-33 -32 -72 -61 -85
-63 -82 -16 -129 -23 -129 -20 0 22 192 253 211 253 5 0 21 -25 37 -56z m522
23 c0 -7 -14 -20 -30 -29 -35 -20 -37 -16 -9 23 20 28 39 31 39 6z m-1367 -24
c-3 -16 -34 -87 -69 -159 -72 -150 -141 -237 -201 -253 -57 -16 -77 0 -69 57
7 51 60 155 113 219 34 42 212 175 224 167 4 -2 4 -16 2 -31z m-3042 3 c35
-13 84 -35 109 -49 25 -14 62 -30 83 -37 28 -9 41 -20 52 -47 19 -45 11 -57
-31 -50 -90 15 -310 163 -290 195 9 15 3 16 77 -12z m305 -16 c26 -10 53 -36
54 -52 0 -5 -20 -8 -45 -8 -34 0 -47 5 -55 19 -24 46 -8 61 46 41z m835 -17
c11 -30 0 -43 -38 -43 -28 0 -29 10 -2 44 25 32 27 32 40 -1z m3292 13 c7 -17
-147 -166 -159 -153 -14 14 40 98 84 131 51 39 67 43 75 22z m-4457 -63 c-7
-7 -86 10 -86 19 0 5 5 18 11 30 11 20 12 19 45 -13 18 -18 32 -34 30 -36z
m2065 -81 c-1 -138 -47 -322 -80 -322 -5 0 -30 30 -56 66 l-47 65 82 166 c95
192 102 194 101 25z m321 91 c-1 -16 -35 -93 -77 -173 -43 -80 -91 -179 -107
-220 -17 -41 -35 -86 -40 -100 l-10 -25 -13 35 c-26 69 -16 157 31 282 23 60
36 78 117 153 50 46 93 82 96 80 2 -3 4 -17 3 -32z m2108 -39 c11 -25 20 -49
20 -54 0 -6 -208 -148 -232 -158 -5 -2 -5 16 -2 40 4 23 12 45 18 47 6 2 46
42 90 88 43 45 80 83 83 83 2 0 13 -21 23 -46z m-3862 25 l49 -10 41 -87 c43
-91 64 -142 58 -142 -2 0 -52 28 -112 63 -90 52 -115 71 -146 116 -21 29 -35
58 -32 62 7 12 83 11 142 -2z m2046 -16 c-31 -142 -59 -226 -96 -288 -23 -38
-50 -87 -61 -108 -22 -42 -65 -71 -176 -117 -49 -20 -85 -43 -107 -68 l-34
-37 9 30 c42 138 71 214 114 298 47 93 54 102 116 142 36 23 102 72 145 109
44 36 83 66 88 66 5 0 6 -12 2 -27z m-2678 -13 c38 -16 43 -22 54 -71 7 -30
21 -69 31 -87 24 -42 24 -52 -1 -52 -14 0 -27 15 -44 49 -14 27 -53 74 -87
104 -42 38 -60 61 -55 72 6 18 35 14 102 -15z m3933 -18 c-7 -21 -20 -34 -35
-38 -41 -11 -41 6 0 42 22 19 41 32 43 31 2 -2 -2 -18 -8 -35z m-3484 -14 l27
-41 -47 6 c-26 4 -60 7 -75 7 -19 0 -30 7 -38 25 -19 41 -15 45 47 45 57 0 59
-1 86 -42z m456 24 c9 -9 49 -214 49 -247 0 -23 -4 -26 -26 -23 -20 2 -35 17
-63 65 -36 61 -112 200 -120 217 -4 10 150 -1 160 -12z m558 -36 c99 -30 105
-34 117 -67 24 -67 18 -102 -28 -154 -49 -55 -111 -97 -132 -89 -8 3 -24 29
-35 57 -11 29 -33 83 -51 120 -17 38 -40 91 -50 118 l-20 49 48 -1 c26 0 94
-15 151 -33z m-1523 -28 c49 -52 93 -132 81 -145 -4 -3 -18 -1 -31 5 -18 8
-25 21 -30 56 -6 36 -15 52 -47 79 -36 32 -50 57 -30 57 4 0 30 -24 57 -52z
m1304 -30 c17 -46 40 -116 51 -155 25 -89 30 -232 10 -256 -13 -16 -16 -16
-50 4 -79 47 -107 98 -158 288 -18 70 -23 105 -18 141 7 54 -1 49 112 58 18 2
26 -11 53 -80z m2745 73 c3 -5 1 -12 -5 -16 -5 -3 -10 1 -10 9 0 18 6 21 15 7z
m261 -35 c-6 -31 -14 -38 -74 -66 -37 -17 -79 -43 -94 -57 l-28 -27 0 72 0 72
38 1 c20 1 46 1 57 0 11 -1 38 10 60 23 22 13 42 23 44 21 2 -2 0 -20 -3 -39z
m-4101 -7 c34 -19 74 -32 110 -36 53 -6 57 -8 80 -48 14 -23 34 -68 45 -99
l20 -58 -26 6 c-14 4 -62 24 -108 46 -69 33 -90 49 -123 92 -44 60 -78 128
-63 128 6 0 35 -14 65 -31z m-259 -17 c40 -32 63 -103 27 -83 -48 27 -73 56
-67 79 8 26 12 27 40 4z m4104 -70 c0 -99 -36 -166 -145 -271 -74 -71 -89 -81
-121 -81 l-37 0 39 43 c92 99 166 208 190 280 13 40 26 78 29 85 2 6 14 12 25
12 18 0 20 -6 20 -68z m556 22 c8 -20 13 -38 10 -41 -2 -3 -32 -1 -66 4 l-62
8 43 32 c24 18 48 32 52 33 4 0 15 -16 23 -36z m-2911 16 c3 -5 3 -15 -1 -21
-6 -11 -23 6 -24 24 0 10 18 9 25 -3z m2199 -97 c-49 -98 -63 -117 -153 -204
l-100 -96 -53 5 c-29 2 -55 6 -57 9 -7 5 28 102 48 135 9 15 54 55 101 91 47
35 102 84 123 110 36 44 52 52 118 56 l26 1 -53 -107z m-3314 50 c78 -51 177
-130 184 -148 7 -19 -21 -31 -122 -52 -72 -14 -74 -14 -96 6 -13 12 -29 41
-36 64 -7 23 -26 69 -44 102 -17 33 -33 64 -35 68 -9 22 98 -8 149 -40z m-615
-22 c32 -28 48 -71 27 -71 -19 0 -102 32 -111 44 -7 8 -7 24 1 49 12 41 16 40
83 -22z m3805 41 c0 -8 -155 -122 -165 -122 -2 0 3 20 12 45 14 43 18 46 76
64 72 23 77 24 77 13z m506 -60 c-24 -91 -74 -151 -189 -227 -53 -35 -147 -71
-147 -57 0 4 47 58 105 121 58 63 105 117 105 122 0 7 133 100 137 95 1 -1 -4
-25 -11 -54z m-2457 -22 c29 -37 31 -43 22 -77 -5 -21 -17 -90 -26 -153 -35
-252 -80 -440 -105 -440 -23 0 -36 211 -20 360 24 238 25 244 56 297 16 29 32
53 35 53 3 0 20 -18 38 -40z m-1068 -13 c62 -42 83 -67 57 -67 -7 0 -19 9 -25
20 -7 10 -36 35 -65 55 -29 19 -47 35 -41 35 6 0 40 -19 74 -43z m2796 -43
c-19 -43 -46 -110 -62 -147 l-28 -69 -81 8 c-102 10 -113 10 -156 0 -34 -8
-34 -8 -18 10 9 11 33 58 53 106 20 47 44 92 53 101 9 8 56 22 104 31 49 9
105 23 125 30 21 8 39 13 40 11 2 -1 -12 -37 -30 -81z m1083 61 c7 -9 11 -17
9 -19 -2 -2 -53 -13 -114 -26 -60 -12 -115 -25 -121 -28 -6 -4 -53 -56 -104
-117 -99 -118 -125 -133 -197 -120 -40 7 -42 18 -7 34 38 17 147 116 183 166
39 54 79 84 145 106 66 23 189 25 206 4z m-4745 -15 c3 -5 33 -21 66 -36 70
-32 104 -67 114 -120 4 -21 13 -51 22 -67 15 -30 12 -44 -6 -33 -6 4 -33 38
-62 76 -47 63 -57 71 -108 87 -31 9 -60 20 -65 24 -10 8 12 79 24 79 5 0 11
-4 15 -10z m382 -38 c54 -27 128 -61 166 -77 37 -15 67 -31 67 -34 0 -4 -29
-21 -65 -39 l-65 -32 -50 45 c-27 24 -75 63 -105 86 -64 48 -84 77 -64 90 8 5
15 9 16 9 1 0 46 -22 100 -48z m-157 5 c11 -18 60 -70 110 -116 49 -45 90 -86
90 -90 0 -4 -21 -22 -46 -41 l-46 -32 -44 43 c-34 34 -49 59 -64 109 -11 36
-31 79 -44 95 -34 40 -34 65 -1 65 18 0 31 -9 45 -33z m4543 -17 c7 -26 -23
-42 -130 -71 -68 -18 -85 -28 -133 -74 -48 -46 -105 -85 -125 -85 -11 0 157
200 169 200 33 1 167 29 183 39 26 15 30 14 36 -9z m-1487 -82 c-60 -122 -98
-155 -233 -196 -203 -64 -236 -72 -282 -72 -25 -1 -64 -7 -86 -15 -52 -19 -52
-19 -29 7 50 56 177 144 273 190 166 78 382 169 390 162 1 -1 -13 -36 -33 -76z
m-3247 3 c36 -19 120 -116 109 -127 -3 -2 -27 10 -54 28 -27 18 -70 46 -96 61
-54 31 -60 39 -52 61 6 16 22 13 93 -23z m2051 -76 c30 -44 68 -99 86 -121 34
-45 84 -162 84 -195 0 -28 -133 -222 -189 -276 -34 -33 -51 -43 -77 -43 -59 0
-68 53 -35 194 22 90 37 215 46 381 7 119 14 161 24 148 4 -4 31 -44 61 -88z
m2709 39 c1 -14 -12 -28 -41 -45 -64 -36 -76 -40 -165 -48 -73 -6 -81 -5 -70
9 35 46 57 62 111 79 34 11 81 28 106 39 49 21 58 16 59 -34z m-4750 -56 c59
-40 122 -81 139 -90 43 -23 40 -34 -8 -30 -52 5 -243 136 -248 170 -2 12 -1
22 3 22 3 0 54 -33 114 -72z m1042 49 c29 -19 109 -133 151 -215 12 -24 -3
-66 -26 -75 -7 -3 -54 30 -106 73 -71 59 -100 91 -121 132 -43 84 -42 92 11
99 25 3 48 7 51 7 3 1 21 -8 40 -21z m664 -57 c-8 -41 -19 -90 -24 -109 -7
-22 -7 -66 -1 -130 5 -53 10 -111 10 -130 l0 -34 -24 23 c-35 32 -67 103 -83
185 -13 67 -12 73 9 129 16 41 37 71 72 102 27 25 50 43 51 42 2 -2 -3 -37
-10 -78z m-810 -30 c33 -88 48 -104 185 -212 l35 -27 -26 -1 c-42 0 -92 25
-170 88 -70 55 -217 208 -208 216 5 5 131 24 143 22 5 -1 24 -40 41 -86z
m-189 -17 c108 -121 105 -116 58 -108 -80 13 -169 47 -227 87 l-60 41 24 18
c25 19 78 36 115 38 14 1 43 -24 90 -76z m-743 3 c37 -27 65 -51 63 -53 -5 -6
-150 28 -160 37 -5 5 -5 25 -2 44 8 41 3 43 99 -28z m4807 18 c0 -18 -5 -24
-22 -24 -44 0 -52 15 -23 38 32 25 45 21 45 -14z m-4323 -62 c11 -15 41 -39
67 -52 25 -14 46 -28 46 -31 0 -3 -10 -15 -23 -27 l-24 -22 -96 51 c-53 28
-97 52 -97 54 0 6 84 55 96 55 5 0 20 -13 31 -28z m4307 14 c27 -4 30 -19 8
-40 -16 -14 -27 -15 -64 -7 -62 14 -133 47 -116 55 11 5 121 0 172 -8z m-1259
-18 c-4 -13 -20 -45 -35 -73 -22 -40 -33 -49 -51 -47 -42 5 -174 67 -174 82 0
8 15 25 34 37 30 20 46 23 133 23 98 0 99 0 93 -22z m335 8 c-19 -7 -48 -16
-65 -20 l-30 -7 30 21 c17 11 45 20 65 19 l35 0 -35 -13z m-164 -5 c-6 -10
-99 -63 -128 -74 -15 -5 -15 -1 4 38 22 45 22 45 76 45 29 0 51 -4 48 -9z
m-3712 -22 c39 -12 75 -23 79 -26 9 -6 -47 -43 -64 -43 -20 0 -119 65 -119 77
0 18 22 16 104 -8z m4603 0 c26 -12 71 -29 100 -38 31 -9 50 -20 45 -26 -4 -6
-41 -25 -82 -43 l-75 -32 -70 15 c-98 21 -113 19 -198 -19 -104 -48 -114 -31
-44 71 40 58 45 62 92 69 28 3 59 10 70 15 38 15 113 9 162 -12z m-507 -7 c0
-16 -33 -77 -53 -99 -13 -14 -32 -23 -51 -23 -19 0 -51 -15 -89 -41 -32 -23
-60 -40 -62 -38 -7 8 46 105 78 142 26 32 43 41 92 52 75 16 85 17 85 7z m140
-12 l35 -1 -43 -39 c-35 -32 -140 -85 -149 -76 -3 2 36 106 44 119 3 5 22 7
42 3 20 -3 52 -6 71 -6z m-4291 -41 c28 -18 51 -36 51 -40 0 -18 -19 -17 -63
3 -36 17 -47 27 -47 45 0 13 2 23 4 23 3 0 27 -14 55 -31z m351 -4 c21 -25 -1
-36 -61 -33 -47 3 -54 6 -57 26 -3 20 0 22 51 22 37 0 59 -5 67 -15z m3550 -1
c0 -3 -20 -37 -45 -75 -24 -38 -53 -86 -64 -107 -29 -56 -45 -67 -78 -52 -25
10 -97 92 -109 124 -6 16 22 29 161 77 110 38 135 44 135 33z m-3697 -24 c7
-29 -15 -43 -47 -29 -32 15 -33 23 -3 37 33 16 44 14 50 -8z m4685 8 c7 -7 12
-29 12 -50 l0 -38 -67 1 c-38 0 -77 4 -88 8 -17 7 -13 12 33 35 29 15 55 33
59 41 6 18 35 19 51 3z m-1565 -38 c60 -22 84 -36 75 -41 -24 -13 -209 -60
-272 -69 -64 -10 -92 -29 -134 -95 -14 -22 -42 -60 -62 -85 -20 -25 -45 -70
-55 -100 -23 -74 -82 -227 -103 -267 -17 -33 -32 -43 -32 -21 0 24 -121 405
-145 456 -14 28 -25 55 -26 59 0 4 35 19 78 34 43 15 112 42 153 60 41 18 127
49 190 70 146 49 205 48 333 -1z m-3338 3 c50 -24 46 -45 -7 -41 -39 3 -43 6
-46 31 -4 31 4 33 53 10z m149 -50 c-39 -29 -79 -7 -49 27 16 18 19 18 42 3
24 -16 24 -17 7 -30z m390 25 c18 -10 18 -12 3 -22 -12 -10 -29 -8 -81 8 -41
13 -61 23 -53 29 15 10 103 0 131 -15z m436 -4 c27 -8 67 -30 89 -48 l41 -34
-93 -31 c-148 -50 -182 -42 -261 59 -39 50 -46 64 -35 71 19 13 198 1 259 -17z
m-568 -20 c43 -14 78 -29 78 -34 0 -4 -11 -15 -25 -24 -18 -12 -30 -14 -42 -6
-10 5 -49 23 -86 39 -69 31 -80 51 -29 51 15 0 62 -12 104 -26z m4215 -8 c8
-8 -18 -36 -89 -98 l-58 -50 -60 47 c-33 25 -60 50 -60 54 0 8 75 43 115 54
25 7 144 1 152 -7z m-4397 -6 c8 -5 19 -31 25 -58 l12 -50 -45 -6 c-77 -10
-79 -9 -95 39 -16 45 -16 45 7 45 13 0 34 9 47 20 28 22 29 23 49 10z m-223
-17 c5 -13 -43 -63 -58 -63 -10 0 -12 41 -3 65 8 19 55 17 61 -2z m4242 -2 c9
-6 -3 -16 -45 -36 -80 -38 -186 -77 -192 -71 -3 3 14 30 38 61 l42 55 72 0
c39 0 77 -4 85 -9z m604 -8 c42 -3 77 -9 77 -12 -1 -15 -21 -30 -94 -70 l-80
-42 -73 16 c-40 9 -73 20 -73 24 0 4 16 25 35 47 19 21 35 43 35 48 0 5 21 6
48 2 26 -3 82 -9 125 -13z m-4770 -10 c23 -85 23 -85 -79 -81 l-69 3 42 22
c23 13 50 34 60 48 21 29 40 32 46 8z m585 -35 c16 -29 39 -62 51 -72 11 -11
21 -28 21 -38 0 -19 -1 -19 -31 -1 -17 10 -56 44 -87 77 l-56 58 25 14 c38 21
45 17 77 -38z m-293 9 l40 -20 -30 -13 c-51 -22 -70 -18 -83 19 -7 18 -12 37
-12 41 0 10 35 -1 85 -27z m3241 -44 c40 -42 72 -78 71 -79 -1 -2 -45 -17 -97
-35 -87 -29 -101 -31 -170 -24 -142 14 -196 10 -239 -18 -33 -22 -105 -57
-117 -57 -12 0 29 60 63 91 56 53 88 72 193 114 52 21 118 49 145 61 28 13 56
23 64 23 7 1 46 -34 87 -76z m389 40 c-50 -77 -46 -75 -105 -71 l-55 3 85 53
c47 28 88 52 92 52 4 0 -4 -17 -17 -37z m-2495 7 c42 -21 80 -70 128 -165 26
-53 54 -93 155 -223 28 -37 36 -82 14 -82 -23 0 -108 60 -160 113 -46 47 -128
154 -169 217 -9 15 -34 34 -57 45 -23 10 -41 24 -41 31 0 7 -3 19 -6 28 -4 10
6 21 33 35 48 25 55 25 103 1z m-897 -92 c42 -46 77 -86 77 -89 0 -4 -7 -13
-16 -20 -13 -11 -17 -10 -26 5 -5 9 -39 51 -75 92 -56 64 -70 94 -45 94 4 0
42 -37 85 -82z m3762 35 c36 -26 65 -50 65 -54 0 -8 -123 -89 -135 -89 -18 0
-175 96 -175 107 0 13 135 81 162 82 10 1 47 -20 83 -46z m-3862 -35 c61 -77
99 -139 93 -154 -7 -19 -42 -17 -88 4 -41 19 -178 129 -178 143 0 5 10 9 23 9
12 0 40 9 62 19 22 11 43 20 47 20 4 1 22 -18 41 -41z m769 26 l31 -16 -6 -71
c-4 -40 -14 -99 -22 -132 -13 -47 -14 -69 -6 -102 16 -62 15 -64 -33 -43 -58
24 -104 56 -205 139 -58 48 -101 75 -139 87 -37 11 -50 19 -41 24 8 5 93 34
189 65 96 31 180 58 185 60 6 2 11 4 13 4 2 1 17 -6 34 -15z m3648 -29 c0 -52
-10 -56 -75 -26 l-40 18 50 26 c28 14 53 26 58 27 4 0 7 -20 7 -45z m-4810
-17 c10 -18 18 -34 16 -35 -2 -2 -47 -1 -100 3 -90 7 -96 8 -96 29 0 32 7 35
87 35 72 0 74 -1 93 -32z m173 -8 c10 -16 42 -51 72 -77 30 -25 53 -48 51 -51
-3 -2 -35 6 -73 19 -50 16 -81 35 -120 72 -29 27 -53 54 -53 58 0 5 24 9 53 9
48 0 54 -3 70 -30z m4396 -9 c11 -7 10 -11 -7 -20 -32 -17 -77 -13 -103 9
l-24 19 60 1 c33 0 66 -4 74 -9z m-3257 -18 c9 -10 26 -38 38 -63 38 -75 97
-156 165 -226 36 -37 65 -75 65 -85 0 -39 -128 -52 -195 -19 -69 33 -116 90
-126 152 -8 47 -3 213 6 246 6 17 29 15 47 -5z m2466 -31 c-12 -20 -23 -39
-24 -41 -4 -5 -104 30 -104 37 1 21 23 33 76 40 32 5 62 7 66 5 4 -2 -3 -20
-14 -41z m247 -3 c129 -57 126 -52 70 -88 -39 -25 -60 -31 -101 -31 -55 0
-194 44 -194 61 0 6 12 33 26 60 l26 51 41 -6 c23 -4 82 -25 132 -47z m-1666
-37 c38 -75 59 -147 76 -262 20 -126 19 -219 0 -247 -19 -28 -75 -39 -106 -22
-88 46 -131 168 -104 294 8 39 15 88 15 110 0 22 4 55 10 73 13 48 59 124 71
117 5 -4 22 -32 38 -63z m2047 54 c10 -8 17 -16 14 -19 -14 -12 -133 -67 -145
-67 -35 0 -21 23 36 60 71 45 68 45 95 26z m329 -4 c62 -16 70 -21 73 -43 3
-25 1 -26 -90 -36 l-93 -11 -39 31 c-26 21 -34 32 -25 36 8 2 25 12 38 22 29
23 47 23 136 1z m-4656 -57 l104 -43 -57 -16 c-32 -9 -62 -25 -69 -36 -17 -28
-31 -26 -138 19 l-94 39 -3 46 -3 47 78 -7 c58 -5 105 -18 182 -49z m4472 -36
c28 -22 23 -28 -57 -55 -53 -18 -53 -18 -104 6 -29 13 -47 27 -42 32 5 5 36
22 68 37 64 31 70 30 135 -20z m-3822 19 c41 -9 64 -24 114 -71 143 -135 197
-176 306 -230 68 -35 104 -58 94 -61 -36 -14 -116 -5 -185 22 -40 16 -102 37
-138 47 -107 31 -310 183 -310 233 0 24 37 72 55 72 7 0 36 -5 64 -12z m4071
-51 c0 -26 -6 -36 -31 -51 l-31 -18 -34 33 c-19 18 -34 36 -34 39 0 4 21 11
48 17 80 17 82 17 82 -20z m-590 15 c0 -9 -86 -72 -98 -72 -9 0 81 79 91 80 4
0 7 -4 7 -8z m-578 -21 c32 -7 31 -8 -72 -60 -106 -53 -173 -98 -200 -136 -45
-63 -92 -101 -170 -140 -77 -39 -127 -56 -269 -95 -28 -7 -62 -29 -95 -59
-113 -105 -141 -108 -87 -8 22 39 44 95 50 122 36 183 63 235 140 271 20 9 50
27 66 39 86 64 109 70 290 76 171 6 285 3 347 -10z m-3739 -16 c31 -13 72 -31
92 -39 35 -15 36 -16 20 -40 l-16 -24 -42 19 c-23 10 -52 19 -64 19 -42 0 -53
11 -53 51 0 21 2 39 4 39 2 0 29 -11 59 -25z m4473 -40 c32 -25 70 -48 84 -52
14 -3 49 -17 79 -29 l53 -24 -49 -38 c-59 -47 -99 -56 -194 -42 -113 16 -119
18 -119 40 0 11 -16 38 -35 59 l-36 39 58 46 c32 25 68 46 79 46 12 0 48 -20
80 -45z m298 13 c25 -18 45 -35 45 -38 1 -3 -20 -17 -47 -31 l-47 -27 -58 33
c-86 48 -86 50 -25 73 71 28 80 27 132 -10z m-4253 10 c26 -7 39 -17 39 -28 0
-15 -47 -110 -54 -110 -13 0 -152 53 -191 72 -27 14 -65 29 -83 33 -19 4 -30
11 -25 15 26 26 247 39 314 18z m3450 -18 c126 -44 163 -60 153 -70 -5 -4 -65
-13 -134 -19 -69 -6 -170 -22 -225 -36 -100 -25 -236 -47 -243 -40 -10 10 307
193 337 194 13 1 63 -13 112 -29z m-3210 -90 l83 -80 -61 0 c-54 0 -200 24
-211 34 -9 9 30 66 65 94 21 17 38 31 39 32 0 0 39 -36 85 -80z m-552 49 l32
-11 -47 -30 c-55 -34 -73 -26 -41 20 12 17 22 32 23 32 1 0 15 -5 33 -11z
m-191 -29 c25 -11 42 -25 40 -32 -5 -14 -86 -40 -99 -32 -14 8 -11 84 4 84 6
0 32 -9 55 -20z m4871 -4 c7 -9 10 -29 7 -50 -3 -20 -8 -52 -11 -71 -8 -47
-20 -44 -44 9 -10 24 -29 49 -40 55 -28 15 -26 22 12 49 37 25 60 28 76 8z
m-4490 -63 c50 -20 91 -40 91 -44 0 -3 -10 -19 -22 -34 -20 -26 -23 -27 -87
-20 -78 8 -161 38 -186 65 -21 23 -22 21 25 49 48 29 75 27 179 -16z m3836 3
c34 -27 33 -31 -11 -39 -40 -8 -75 23 -54 48 17 21 30 19 65 -9z m-4135 0 c0
-2 2 -11 5 -19 4 -10 -12 -22 -53 -40 -33 -15 -64 -27 -71 -27 -10 0 -28 48
-20 54 21 14 139 42 139 32z m4674 -17 c26 -12 62 -89 52 -114 -3 -8 -16 -15
-30 -15 -30 0 -153 38 -160 49 -4 6 99 91 111 91 1 0 13 -5 27 -11z m-666 -35
c12 -8 22 -20 22 -27 0 -6 -41 -36 -90 -65 -88 -52 -92 -53 -187 -59 -84 -5
-113 -2 -206 21 -60 14 -119 26 -132 26 -39 0 -37 17 3 33 57 23 242 66 329
77 166 21 221 20 261 -6z m-3941 -29 c40 -24 41 -30 6 -43 -16 -5 -43 -23 -62
-41 -26 -25 -42 -31 -76 -31 -43 0 -44 0 -52 43 l-9 42 75 26 c42 15 78 26 81
25 3 -1 20 -10 37 -21z m468 10 c33 -7 49 -14 35 -14 -14 -1 -49 -4 -77 -7
-49 -6 -53 -5 -53 15 0 25 10 25 95 6z m3645 -50 c0 -28 -8 -31 -35 -12 -21
16 -12 37 16 37 14 0 19 -7 19 -25z m295 -26 c66 -21 133 -49 149 -62 l29 -23
-149 4 c-140 4 -153 6 -206 33 -54 27 -58 32 -58 64 l0 35 58 -6 c31 -4 111
-24 177 -45z m-3554 -29 c66 -34 72 -54 18 -56 -77 -2 -247 -112 -451 -291
-99 -87 -135 -113 -157 -113 -16 0 -43 -3 -60 -6 -27 -6 -31 -4 -31 14 0 16
18 30 72 59 62 33 77 46 117 108 79 120 101 143 199 212 166 115 194 122 293
73z m-603 8 c-3 -7 -42 -35 -88 -62 l-84 -50 -115 -7 c-64 -3 -117 -6 -118 -5
0 0 -4 18 -8 39 l-7 37 40 0 c25 0 61 11 97 30 54 28 64 30 172 30 85 0 114
-3 111 -12z m3809 -10 c26 -13 61 -37 77 -54 125 -129 136 -142 123 -153 -49
-40 -174 -54 -248 -27 -44 15 -139 95 -139 116 -1 11 124 138 137 140 1 0 24
-10 50 -22z m-3574 -6 l48 -7 -50 -37 c-61 -46 -91 -84 -150 -195 -38 -71 -54
-92 -91 -114 -67 -41 -71 -39 -64 34 3 34 10 79 16 100 10 41 87 178 119 213
21 22 45 23 172 6z m4202 -26 c-6 -28 -12 -36 -29 -36 -33 0 -66 40 -33 40 6
0 23 9 37 20 14 10 26 17 28 15 2 -1 0 -19 -3 -39z m-2962 -11 c58 -30 199
-169 223 -220 13 -27 21 -51 19 -53 -2 -2 -23 11 -47 31 -120 97 -193 120
-443 137 -93 6 -160 16 -199 30 -33 11 -75 20 -95 21 l-36 0 45 14 c25 7 70
23 100 34 48 18 79 20 230 21 134 0 182 -4 203 -15z m2702 -36 l180 3 23 -25
c22 -23 22 -25 5 -32 -10 -5 -78 -10 -150 -11 -74 -2 -142 -8 -154 -15 -19
-10 -27 -6 -65 32 -42 41 -59 70 -31 52 6 -4 93 -6 192 -4z m-1083 -19 c20 -6
58 -26 85 -45 26 -18 84 -52 128 -74 109 -54 167 -113 221 -226 32 -68 65
-115 133 -192 113 -126 154 -191 176 -273 10 -36 31 -86 46 -113 16 -26 29
-53 29 -60 0 -34 -271 -294 -438 -421 l-64 -49 -141 12 c-78 7 -167 17 -197
23 -77 14 -204 76 -272 132 -50 41 -70 51 -168 76 -236 62 -353 175 -381 368
-16 111 14 252 82 383 66 126 231 329 294 361 22 12 105 43 185 69 152 51 194
55 282 29z m-3165 -37 c-13 -21 -43 -56 -67 -77 l-43 -39 -91 7 c-52 4 -94 12
-98 19 -12 18 -21 77 -14 85 4 3 42 5 84 3 42 -2 93 -4 113 -4 21 -1 57 10 85
24 27 15 50 25 52 23 2 -1 -7 -19 -21 -41z m958 -4 c50 -7 123 -25 164 -42 54
-21 103 -31 180 -38 189 -17 301 -56 428 -148 79 -57 113 -149 129 -346 5 -60
2 -88 -25 -185 -17 -63 -36 -132 -42 -153 -12 -44 -100 -138 -145 -154 -101
-36 -168 -55 -220 -60 -32 -3 -81 -11 -109 -19 -27 -7 -81 -18 -119 -24 -52
-8 -93 -24 -167 -65 -54 -30 -124 -65 -156 -79 -32 -13 -84 -38 -117 -55 -32
-17 -66 -31 -76 -31 -26 0 -299 213 -348 273 -10 11 -5 34 24 108 34 91 35 97
29 184 -6 81 -4 97 18 157 14 37 44 97 66 134 23 37 41 76 41 86 0 20 75 167
157 305 59 101 140 177 178 169 11 -3 61 -10 110 -17z m2521 1 c115 -24 204
-64 260 -118 51 -50 129 -113 176 -140 20 -12 39 -29 42 -38 8 -22 -68 -53
-146 -60 -59 -6 -66 -4 -106 25 -38 29 -86 92 -133 179 -11 18 -50 50 -103 82
-93 57 -131 90 -104 90 9 0 60 -9 114 -20z m-2832 -22 c-27 -53 -106 -129
-164 -158 -30 -16 -79 -49 -109 -75 -29 -25 -81 -67 -114 -92 -58 -45 -62 -46
-156 -54 -96 -8 -119 -3 -108 24 3 9 29 16 72 21 53 5 78 14 119 41 78 52 175
124 252 187 65 53 198 138 217 138 4 0 0 -14 -9 -32z m3826 -13 c0 -8 -9 -15
-19 -15 -29 0 -35 18 -9 23 13 2 24 5 26 6 1 0 2 -6 2 -14z m-72 -26 c70 -12
70 -18 0 -44 -40 -15 -58 -16 -124 -7 -87 12 -128 36 -78 47 16 4 34 8 39 10
22 7 102 4 163 -6z m-241 -59 c17 -13 42 -20 72 -21 25 0 54 -4 64 -7 40 -16
-75 -72 -148 -72 -17 0 -52 -12 -78 -26 l-48 -25 -42 24 c-23 14 -50 34 -60
45 -18 20 -18 20 37 32 31 6 79 24 108 40 64 35 64 35 95 10z m288 1 c-3 -6
-16 -11 -28 -11 -21 1 -21 1 3 15 27 14 36 13 25 -4z m-4646 -18 c31 -9 57
-18 59 -19 2 -1 -17 -32 -41 -69 l-45 -67 -31 81 c-17 44 -31 83 -31 86 0 9
33 5 89 -12z m156 -70 l-7 -78 -67 -40 c-36 -22 -69 -41 -72 -43 -4 -2 -10 9
-13 24 -5 19 0 35 20 62 46 61 137 163 141 158 3 -2 1 -40 -2 -83z m4462 33
c3 -3 3 -17 -1 -31 -6 -24 -10 -25 -73 -25 l-67 0 35 36 c29 31 39 35 68 30
18 -3 36 -7 38 -10z m-3903 -118 c-73 -176 -101 -222 -177 -292 -39 -37 -91
-86 -114 -108 -24 -23 -44 -40 -46 -37 -2 2 -9 25 -16 52 -13 53 -2 113 30
179 35 69 297 288 346 288 7 0 -2 -32 -23 -82z m3871 10 c-4 -13 -11 -27 -15
-32 -7 -7 -182 15 -250 32 l-25 6 25 7 c14 4 80 7 148 8 l123 1 -6 -22z
m-4436 -52 c-2 -2 -17 -6 -34 -10 l-30 -7 30 19 c17 10 32 15 34 10 1 -5 1
-11 0 -12z m4190 -12 c40 -33 39 -44 -1 -44 -18 0 -60 -7 -93 -15 -49 -11 -70
-12 -112 -2 l-52 11 67 38 c85 48 144 51 191 12z m113 7 c19 -1 78 -48 78 -62
0 -10 -34 -12 -79 -3 -21 5 -37 16 -46 35 -20 37 -19 40 8 35 12 -3 30 -5 39
-5z m98 -21 c0 -5 -4 -10 -9 -10 -6 0 -13 5 -16 10 -3 6 1 10 9 10 9 0 16 -4
16 -10z m-4395 -31 c0 -8 -17 -16 -44 -21 -23 -4 -52 -10 -62 -13 -13 -4 -19
-2 -19 8 0 8 21 20 53 29 59 18 72 17 72 -3z m3860 -41 c44 -11 85 -22 92 -24
14 -4 57 -83 49 -91 -3 -3 -36 4 -73 15 -72 22 -127 58 -165 106 -21 28 -21
29 -3 22 11 -5 56 -18 100 -28z m419 -34 c33 -39 37 -49 28 -69 -10 -22 -15
-23 -131 -23 -120 0 -121 1 -121 24 0 12 -4 34 -9 47 -9 23 -6 26 42 45 29 12
75 21 102 21 48 1 53 -1 89 -45z m54 40 c24 -7 27 -20 12 -44 -7 -12 -13 -11
-34 10 -40 36 -32 48 22 34z m-4338 -19 c0 -11 -51 -85 -58 -85 -9 0 -42 64
-42 80 0 6 23 10 50 10 28 0 50 -2 50 -5z m152 -11 l45 -6 -28 -76 c-15 -41
-32 -78 -36 -82 -4 -3 -28 -22 -52 -40 l-43 -33 -19 24 c-10 13 -28 43 -41 66
l-22 41 37 56 c41 61 51 65 159 50z m3840 -130 c33 -6 38 -11 44 -41 4 -19 4
-36 1 -39 -7 -7 -78 24 -100 44 -10 9 -23 25 -29 36 -9 17 -7 18 18 12 16 -3
46 -9 66 -12z m251 10 c41 -7 45 -18 18 -53 l-18 -24 -52 28 c-56 31 -62 41
-28 48 36 7 40 7 80 1z m-71 -70 c65 -33 63 -31 50 -47 -10 -11 -23 -10 -79 8
-63 21 -68 24 -71 54 -3 29 -2 30 22 21 13 -5 49 -21 78 -36z m-3990 -62 l19
-62 -28 -35 c-15 -19 -31 -35 -34 -35 -13 0 -91 122 -86 134 6 15 87 65 101
62 5 -1 17 -30 28 -64z m200 -39 c-2 -43 1 -96 5 -118 7 -29 4 -63 -12 -128
-11 -48 -24 -88 -29 -89 -5 0 -32 28 -62 61 l-53 62 19 48 c16 41 17 55 7 86
l-11 38 64 58 c36 32 67 59 70 59 3 0 4 -35 2 -77z m3650 47 c11 0 23 -18 37
-55 11 -30 26 -63 33 -74 20 -32 3 -35 -51 -10 -46 22 -52 29 -66 76 -20 69
-20 77 8 69 12 -3 30 -6 39 -6z m132 -10 c14 -5 26 -16 26 -24 0 -29 -23 -28
-53 3 -34 33 -24 41 27 21z m-24 -100 c-15 -29 -29 -15 -37 36 l-5 39 27 -26
c24 -23 26 -29 15 -49z m-3905 -40 c7 -23 -2 -77 -15 -85 -5 -3 -18 9 -30 26
l-22 30 23 25 c27 29 36 30 44 4z m3845 -34 c0 -13 -20 -36 -30 -36 -7 0 -30
46 -30 60 0 5 13 4 30 -1 17 -6 30 -16 30 -23z m-1860 -334 c0 -22 -37 -82
-50 -82 -13 0 -2 58 17 88 15 24 33 21 33 -6z m-410 3 c0 -2 -10 -20 -23 -38
-13 -19 -34 -60 -48 -90 -21 -49 -30 -58 -67 -73 -43 -16 -98 -62 -140 -118
-12 -16 -24 -27 -27 -25 -7 7 20 99 39 136 28 55 266 241 266 208z m151 -13
c-20 -37 -128 -122 -156 -122 -10 0 23 55 47 76 23 21 95 63 111 64 4 0 3 -8
-2 -18z m143 -9 c20 -107 18 -117 -17 -149 -31 -27 -35 -37 -42 -102 -4 -40
-10 -74 -14 -77 -4 -2 -18 14 -30 36 -18 32 -21 48 -15 82 4 23 6 68 5 99 -1
48 2 61 20 75 12 10 33 28 48 40 34 29 38 28 45 -4z m408 -44 c22 -43 28 -68
28 -125 0 -67 -2 -72 -35 -104 -19 -18 -37 -46 -40 -61 -7 -29 -41 -79 -54
-79 -15 0 -54 147 -48 178 4 17 27 61 52 97 37 55 45 74 45 111 0 60 17 54 52
-17z m147 15 c127 -77 146 -104 70 -104 -32 0 -47 7 -85 42 -51 47 -89 108
-68 108 4 0 41 -21 83 -46z m-1045 26 c-8 -8 -231 -110 -241 -110 -14 0 5 24
43 56 45 36 80 47 199 63 5 0 5 -3 -1 -9z m746 -54 c0 -52 -27 -96 -88 -140
l-44 -31 -19 24 c-19 23 -19 25 -1 45 10 12 42 49 71 84 64 75 81 79 81 18z
m519 -9 c42 -21 90 -71 79 -82 -3 -3 -28 0 -56 7 -34 7 -54 18 -57 29 -4 10
-23 32 -43 49 l-37 30 35 -6 c19 -3 55 -16 79 -27z m-1556 -14 c-3 -21 -10
-45 -14 -54 -15 -29 -279 -123 -279 -99 0 4 11 15 25 24 13 9 54 44 90 78 48
45 79 65 113 74 71 19 71 19 65 -23z m-193 8 c0 -32 -161 -131 -213 -131 -7 0
-27 -9 -45 -20 -30 -19 -35 -19 -62 -5 -39 20 -46 35 -17 35 13 0 71 23 128
51 136 67 209 92 209 70z m790 -92 c0 -40 -38 -97 -124 -183 l-50 -50 -8 29
c-24 92 6 185 68 205 17 6 46 22 64 35 39 29 50 21 50 -36z m-432 -19 c-26
-40 -47 -57 -102 -85 -71 -36 -91 -38 -63 -7 9 10 19 36 23 59 l6 41 72 20
c100 28 100 28 64 -28z m1192 -102 c0 -21 -31 -88 -40 -88 -8 0 -35 67 -46
113 -3 15 -3 48 1 73 l7 47 38 -64 c22 -35 39 -72 40 -81z m140 67 c7 -25 10
-48 7 -52 -11 -10 -100 29 -124 55 -29 31 -29 40 0 35 13 -3 39 0 58 5 18 5
37 8 40 6 3 -2 12 -24 19 -49z m237 49 c-3 -3 -12 -4 -19 -1 -8 3 -5 6 6 6 11
1 17 -2 13 -5z m-54 -36 c25 -29 21 -41 -10 -33 -43 10 -113 46 -113 57 0 18
103 -2 123 -24z m197 -6 c52 -5 86 -14 113 -31 39 -24 46 -42 9 -22 -12 6 -72
11 -135 11 l-115 0 -11 31 -11 31 38 -6 c20 -4 71 -10 112 -14z m-1897 -9
c-16 -44 -57 -93 -86 -103 -18 -6 -49 -22 -69 -37 -21 -14 -44 -23 -53 -19
-12 4 -4 17 37 53 29 25 55 50 57 56 5 12 92 67 108 67 8 0 10 -7 6 -17z m377
3 c0 -11 -35 -85 -52 -109 -16 -23 -103 -77 -123 -77 -31 0 82 146 135 176 25
13 40 17 40 10z m488 -8 c7 -7 12 -17 12 -22 0 -9 -42 -40 -74 -55 -14 -6 4
52 21 72 19 20 25 21 41 5z m1272 2 c0 -5 -11 -17 -25 -26 -24 -16 -27 -16
-45 1 -30 27 -24 35 25 35 25 0 45 -4 45 -10z m-2460 -19 c-12 -23 -86 -39
-103 -22 -12 12 -5 16 58 30 57 13 57 13 45 -8z m139 -40 c-12 -16 -34 -38
-50 -50 -28 -21 -30 -21 -61 -5 -44 22 -43 20 -25 48 18 27 37 33 110 35 l48
1 -22 -29z m1171 -44 c0 -48 -40 -147 -60 -147 -18 0 -20 20 -5 49 8 17 15 56
15 90 0 47 4 62 17 70 24 13 33 -3 33 -62z m643 58 c20 -8 52 -15 72 -15 28 0
37 -5 44 -23 5 -13 28 -35 50 -50 23 -15 39 -32 36 -37 -10 -16 -23 -12 -90
29 -35 21 -84 44 -108 51 -35 9 -46 18 -50 36 -5 28 -1 29 46 9z m-140 -58
c15 -17 27 -38 27 -47 0 -8 -20 -36 -45 -62 -29 -31 -45 -56 -45 -73 0 -25 -7
-31 -43 -37 -16 -3 -19 6 -21 62 -2 55 2 75 28 132 35 76 51 80 99 25z m394 9
l57 -24 -32 -16 c-17 -9 -35 -16 -41 -16 -14 0 -81 65 -81 79 0 14 12 11 97
-23z m137 25 c14 -23 -57 -27 -94 -6 -24 14 -22 14 32 15 31 0 59 -4 62 -9z
m-1376 -42 c48 -57 49 -55 -40 -99 -46 -23 -87 -45 -93 -51 -14 -14 -23 -11
-40 15 -16 24 -14 26 52 93 37 39 74 70 81 71 7 1 25 -12 40 -29z m252 -23 c0
-74 -14 -83 -74 -50 -25 14 -46 29 -46 32 0 10 92 71 108 71 8 1 12 -16 12
-53z m389 -14 c35 -72 35 -71 5 -174 -10 -33 -25 -18 -22 22 1 29 -4 46 -21
64 -12 13 -28 44 -36 69 -12 39 -11 48 1 66 24 34 38 25 73 -47z m-1195 35
c-3 -8 -32 -38 -64 -66 -55 -48 -60 -51 -87 -39 -15 7 -30 13 -32 15 -2 1 8
18 22 37 20 26 36 35 69 40 24 4 54 13 68 21 29 15 33 14 24 -8z m24 -87 c-52
-57 -56 -60 -86 -49 -23 9 -23 10 19 45 24 20 57 54 74 76 l30 39 3 -31 c3
-25 -5 -41 -40 -80z m1422 90 c0 -5 -2 -10 -4 -10 -3 0 -8 5 -11 10 -3 6 -1
10 4 10 6 0 11 -4 11 -10z m-1174 -28 c-4 -11 -26 -40 -50 -65 -24 -26 -49
-60 -56 -77 -22 -54 -78 -29 -65 29 5 25 17 35 70 60 35 17 72 41 82 55 20 27
28 27 19 -2z m1352 -13 c34 -17 62 -34 62 -39 0 -13 -59 -30 -80 -22 -10 4
-32 26 -49 50 -27 36 -29 42 -13 42 10 0 47 -14 80 -31z m-1818 -8 c-13 -26
-25 -32 -44 -25 -19 7 -12 22 18 34 33 13 38 12 26 -9z m1715 -11 c8 -13 -11
-13 -36 1 -11 5 -17 14 -14 20 7 10 39 -4 50 -21z m-540 -26 c16 -25 16 -27
-14 -64 -17 -22 -31 -44 -31 -50 0 -16 -31 -8 -43 11 -7 12 -2 30 24 72 18 32
37 57 40 57 4 0 14 -12 24 -26z m-675 2 c0 -7 -6 -18 -13 -24 -7 -6 -24 -34
-37 -62 -24 -51 -27 -53 -68 -42 l-22 7 24 36 c14 20 41 46 60 57 20 12 36 26
36 32 0 5 5 10 10 10 6 0 10 -6 10 -14z m790 -10 c0 -7 14 -25 30 -41 23 -22
30 -38 30 -66 0 -36 -12 -49 -44 -49 -7 0 -25 32 -40 71 -26 67 -27 72 -10 90
17 19 34 17 34 -5z m355 -13 c-11 -66 -15 -70 -55 -81 -22 -5 -40 -7 -40 -2 0
4 15 26 33 50 17 24 36 49 42 56 18 25 26 15 20 -23z m-1375 2 c0 -17 -52 -55
-76 -55 -14 0 -9 9 21 40 37 38 55 43 55 15z m539 -12 c-9 -26 -8 -48 7 -125
5 -27 4 -28 -40 -28 -31 0 -46 4 -46 13 0 28 44 143 59 154 25 20 31 15 20
-14z m945 -3 c10 -10 -27 -27 -76 -37 -27 -5 -28 -5 -17 27 11 30 14 31 48 25
20 -4 40 -11 45 -15z m-847 -12 c18 -7 32 -15 31 -18 -2 -3 -14 -31 -27 -63
-17 -39 -30 -57 -43 -57 -15 0 -18 9 -18 59 0 58 6 91 18 91 3 0 21 -5 39 -12z
m-360 -85 c-18 -18 -29 -21 -60 -16 -20 3 -37 9 -37 13 0 4 14 26 31 50 l32
43 28 -34 28 -34 -22 -22z m180 63 c-3 -7 -9 -34 -12 -60 -9 -55 -32 -62 -64
-17 -29 41 -27 49 22 71 52 23 61 24 54 6z m522 -38 c25 -61 19 -70 -49 -66
-37 3 -46 7 -48 25 -3 20 50 93 68 93 4 0 17 -23 29 -52z m182 -31 c-18 -18
-22 -2 -9 34 l13 34 3 -29 c2 -16 -1 -33 -7 -39z m-436 43 c9 -14 -37 -88 -57
-94 -25 -6 -22 10 7 61 26 43 39 52 50 33z m-375 -61 c0 -5 -14 -9 -32 -9 -30
0 -31 0 -13 20 14 15 21 17 32 9 7 -6 13 -15 13 -20z m466 -27 c-14 -2 -38 -2
-52 0 l-26 3 22 28 23 28 29 -28 30 -28 -26 -3z"/>
</g>
</svg>
